<svg xmlns="http://www.w3.org/2000/svg" xmlns:xlink="http://www.w3.org/1999/xlink" zoomAndPan="magnify" preserveAspectRatio="xMidYMid meet" version="1.0" viewBox="20.75 15.38 340.43 295.42"><defs><g/><clipPath id="bf3085771e"><rect x="0" width="344" y="0" height="333"/></clipPath></defs><g transform="matrix(1, 0, 0, 1, 19, 14)"><g clip-path="url(#bf3085771e)"><g fill="#27b4a7" fill-opacity="1"><g transform="translate(2.722528, 108.04794)"><g><path d="M 12.59375 -3.296875 C 12.59375 -2.828125 12.628906 -2.179688 12.703125 -1.359375 C 12.785156 -0.535156 12.769531 0.1875 12.65625 0.8125 C 12.539062 1.445312 12.164062 1.765625 11.53125 1.765625 C 9.96875 1.765625 8.28125 1.609375 6.46875 1.296875 C 4.664062 0.984375 3.113281 0.28125 1.8125 -0.8125 C 0.519531 -1.914062 -0.238281 -3.609375 -0.46875 -5.890625 L -0.234375 -8.953125 C -0.546875 -10.128906 -0.78125 -11.421875 -0.9375 -12.828125 C -1.09375 -16.203125 -0.742188 -19.910156 0.109375 -23.953125 C 0.972656 -27.992188 1.800781 -32.175781 2.59375 -36.5 L 2.234375 -40.5 C 2.160156 -41.4375 2.4375 -42.359375 3.0625 -43.265625 C 3.6875 -44.171875 3.960938 -45.015625 3.890625 -45.796875 L 3.890625 -46.03125 C 4.046875 -46.582031 4.082031 -46.976562 4 -47.21875 C 4 -47.601562 3.941406 -48.03125 3.828125 -48.5 C 3.710938 -48.976562 3.613281 -49.488281 3.53125 -50.03125 C 3.457031 -50.738281 3.515625 -51.523438 3.703125 -52.390625 C 3.898438 -53.253906 4.273438 -54.351562 4.828125 -55.6875 C 5.691406 -57.570312 6.335938 -59.570312 6.765625 -61.6875 C 7.203125 -63.8125 7.34375 -65.460938 7.1875 -66.640625 L 6.953125 -68.640625 C 6.867188 -69.347656 6.847656 -70.015625 6.890625 -70.640625 C 6.929688 -71.265625 7.066406 -71.851562 7.296875 -72.40625 L 8.125 -91.25 L 8.125 -91.828125 L 8 -93.25 C 7.925781 -93.957031 7.945312 -94.644531 8.0625 -95.3125 C 8.175781 -95.976562 8.507812 -96.3125 9.0625 -96.3125 C 10.238281 -96.3125 11.804688 -96.070312 13.765625 -95.59375 C 15.734375 -95.125 17.71875 -94.4375 19.71875 -93.53125 C 21.71875 -92.632812 23.441406 -91.535156 24.890625 -90.234375 C 26.347656 -88.941406 27.15625 -87.429688 27.3125 -85.703125 L 27.078125 -83.125 C 27.628906 -81.550781 27.941406 -80.054688 28.015625 -78.640625 C 28.171875 -76.441406 27.972656 -73.910156 27.421875 -71.046875 C 26.878906 -68.179688 26.210938 -65.21875 25.421875 -62.15625 C 24.640625 -59.101562 23.972656 -56.160156 23.421875 -53.328125 L 23.78125 -49.21875 C 23.863281 -48.269531 23.585938 -47.34375 22.953125 -46.4375 C 22.328125 -45.539062 22.054688 -44.703125 22.140625 -43.921875 L 22.140625 -43.671875 C 21.816406 -42.890625 21.632812 -42.203125 21.59375 -41.609375 C 21.5625 -41.023438 21.425781 -40.242188 21.1875 -39.265625 C 20.957031 -38.285156 20.367188 -36.773438 19.421875 -34.734375 C 18.878906 -33.316406 18.488281 -32.019531 18.25 -30.84375 C 18.007812 -29.664062 17.890625 -28.566406 17.890625 -27.546875 C 17.890625 -25.898438 17.988281 -24.46875 18.1875 -23.25 C 18.382812 -22.03125 18.25 -20.875 17.78125 -19.78125 C 17.695312 -17.582031 17.242188 -15.617188 16.421875 -13.890625 C 15.597656 -12.160156 14.773438 -10.472656 13.953125 -8.828125 C 13.128906 -7.179688 12.675781 -5.335938 12.59375 -3.296875 Z M 13.421875 -100.78125 C 13.265625 -102.894531 13.734375 -104.40625 14.828125 -105.3125 C 15.929688 -106.21875 17.382812 -106.671875 19.1875 -106.671875 C 21 -106.671875 22.6875 -106.296875 24.25 -105.546875 C 25.820312 -104.804688 26.804688 -103.414062 27.203125 -101.375 C 27.359375 -99.175781 26.765625 -97.46875 25.421875 -96.25 C 24.085938 -95.03125 22.992188 -94.421875 22.140625 -94.421875 C 21.816406 -94.421875 21.421875 -94.5 20.953125 -94.65625 C 18.753906 -95.050781 16.988281 -95.851562 15.65625 -97.0625 C 14.320312 -98.28125 13.578125 -99.519531 13.421875 -100.78125 Z M 13.421875 -100.78125 "/></g></g></g><g fill="#27b4a7" fill-opacity="1"><g transform="translate(31.214869, 108.04794)"><g><path d="M 9.296875 -42.625 C 9.222656 -41.832031 9.34375 -41.101562 9.65625 -40.4375 C 9.96875 -39.769531 10.125 -39.4375 10.125 -39.4375 C 11.695312 -42.34375 12.832031 -44.953125 13.53125 -47.265625 C 14.238281 -49.585938 14.242188 -50.90625 13.546875 -51.21875 C 12.835938 -51.289062 12.164062 -50.816406 11.53125 -49.796875 C 10.90625 -48.773438 10.394531 -47.578125 10 -46.203125 C 9.613281 -44.835938 9.378906 -43.644531 9.296875 -42.625 Z M 4.234375 40.140625 C 7.765625 36.765625 11.097656 33.113281 14.234375 29.1875 C 17.378906 25.269531 19.9375 21.070312 21.90625 16.59375 C 21.425781 16.832031 20.910156 17.109375 20.359375 17.421875 C 19.816406 17.734375 19.148438 18.207031 18.359375 18.84375 C 17.503906 19.382812 16.601562 19.988281 15.65625 20.65625 C 14.71875 21.320312 13.773438 22.007812 12.828125 22.71875 C 12.285156 23.1875 11.71875 23.65625 11.125 24.125 C 10.539062 24.601562 9.929688 25.039062 9.296875 25.4375 C 7.097656 27 4.859375 28.78125 2.578125 30.78125 C 0.304688 32.789062 -1.453125 35.050781 -2.703125 37.5625 C -2.785156 37.875 -2.90625 38.164062 -3.0625 38.4375 C -3.21875 38.71875 -3.492188 38.9375 -3.890625 39.09375 C -3.492188 39.789062 -3.019531 40.316406 -2.46875 40.671875 C -1.914062 41.023438 -1.289062 41.28125 -0.59375 41.4375 C -0.351562 41.675781 -0.0351562 41.796875 0.359375 41.796875 C 0.828125 41.796875 1.21875 41.675781 1.53125 41.4375 C 2.46875 41.207031 3.367188 40.773438 4.234375 40.140625 Z M 29.78125 -5.1875 C 28.914062 -4.164062 27.914062 -2.96875 26.78125 -1.59375 C 25.644531 -0.21875 24.546875 0.957031 23.484375 1.9375 C 22.429688 2.925781 21.585938 3.421875 20.953125 3.421875 C 20.640625 3.492188 20.265625 3.585938 19.828125 3.703125 C 19.398438 3.828125 18.992188 3.925781 18.609375 4 L 17.546875 4.125 L 14.828125 3.890625 C 14.046875 3.648438 13.222656 3.234375 12.359375 2.640625 C 11.492188 2.054688 10.707031 1.253906 10 0.234375 L 10 0.359375 L 9.65625 -0.125 C 9.414062 -0.4375 9.175781 -0.726562 8.9375 -1 C 8.707031 -1.269531 8.515625 -1.679688 8.359375 -2.234375 L 8.359375 -2.828125 C 7.960938 -2.984375 7.722656 -3.140625 7.640625 -3.296875 C 7.566406 -3.453125 7.53125 -3.648438 7.53125 -3.890625 C 7.457031 -5.140625 7.65625 -6.628906 8.125 -8.359375 C 8.59375 -10.085938 9.101562 -11.617188 9.65625 -12.953125 C 10.363281 -14.679688 11.285156 -16.425781 12.421875 -18.1875 C 13.554688 -19.957031 14.710938 -21.703125 15.890625 -23.421875 C 16.285156 -24.054688 16.695312 -24.707031 17.125 -25.375 C 17.5625 -26.039062 17.9375 -26.765625 18.25 -27.546875 C 18.800781 -28.171875 19.191406 -28.878906 19.421875 -29.671875 C 19.734375 -30.222656 19.96875 -30.734375 20.125 -31.203125 C 20.289062 -31.671875 20.289062 -32.179688 20.125 -32.734375 L 21.078125 -34.5 L 20.25 -34.5 C 19.9375 -34.5 19.625 -34.5 19.3125 -34.5 C 19 -34.5 18.679688 -34.457031 18.359375 -34.375 C 17.503906 -34.300781 16.738281 -34.222656 16.0625 -34.140625 C 15.394531 -34.066406 14.671875 -34.03125 13.890625 -34.03125 C 13.660156 -34.03125 13.382812 -34.03125 13.0625 -34.03125 C 12.75 -34.03125 12.4375 -34.066406 12.125 -34.140625 C 12.050781 -34.066406 11.9375 -34.03125 11.78125 -34.03125 C 11.382812 -34.03125 11.109375 -33.953125 10.953125 -33.796875 L 10.953125 -33.90625 C 10.867188 -33.507812 10.707031 -33.132812 10.46875 -32.78125 C 10.238281 -32.4375 10.046875 -32.101562 9.890625 -31.78125 C 9.648438 -31.550781 9.453125 -31.28125 9.296875 -30.96875 C 9.140625 -30.65625 8.984375 -30.335938 8.828125 -30.015625 C 8.753906 -29.859375 8.597656 -29.484375 8.359375 -28.890625 C 8.117188 -28.304688 7.882812 -27.664062 7.65625 -26.96875 C 7.570312 -26.488281 7.296875 -25.695312 6.828125 -24.59375 C 6.359375 -23.5 5.804688 -22.5 5.171875 -21.59375 C 4.546875 -20.695312 3.960938 -20.25 3.421875 -20.25 C 2.941406 -20.25 2.484375 -20.382812 2.046875 -20.65625 C 1.617188 -20.9375 1.40625 -21.351562 1.40625 -21.90625 C 1.40625 -22.53125 1.640625 -23.253906 2.109375 -24.078125 C 2.585938 -24.898438 2.984375 -25.625 3.296875 -26.25 C 3.453125 -26.5625 3.609375 -26.835938 3.765625 -27.078125 C 3.921875 -27.316406 4 -27.472656 4 -27.546875 L 7.65625 -34.96875 C 6.863281 -35.59375 6.347656 -36.140625 6.109375 -36.609375 C 5.878906 -37.085938 5.648438 -37.640625 5.421875 -38.265625 C 5.335938 -38.660156 5.21875 -39.09375 5.0625 -39.5625 C 4.90625 -40.03125 4.671875 -40.578125 4.359375 -41.203125 C 4.273438 -41.597656 4.234375 -42.03125 4.234375 -42.5 C 4.234375 -42.96875 4.234375 -43.398438 4.234375 -43.796875 C 4.234375 -46.773438 4.765625 -49.441406 5.828125 -51.796875 C 6.890625 -54.148438 8.242188 -56.015625 9.890625 -57.390625 C 11.535156 -58.765625 13.179688 -59.453125 14.828125 -59.453125 C 16.398438 -59.453125 17.71875 -58.941406 18.78125 -57.921875 C 19.84375 -56.898438 20.289062 -55.410156 20.125 -53.453125 C 19.894531 -51.722656 19.128906 -49.601562 17.828125 -47.09375 C 16.535156 -44.582031 15.421875 -42.460938 14.484375 -40.734375 C 13.773438 -39.554688 13.421875 -38.929688 13.421875 -38.859375 C 14.441406 -39.242188 15.953125 -39.710938 17.953125 -40.265625 C 19.953125 -40.816406 21.929688 -41.328125 23.890625 -41.796875 C 25.859375 -42.265625 27.273438 -42.5 28.140625 -42.5 L 29.078125 -42.265625 L 30.5 -42.265625 C 30.96875 -42.265625 31.457031 -42.203125 31.96875 -42.078125 C 32.476562 -41.960938 32.925781 -41.710938 33.3125 -41.328125 L 34.96875 -39.328125 C 35.207031 -39.015625 35.441406 -38.71875 35.671875 -38.4375 C 35.910156 -38.164062 36.109375 -37.875 36.265625 -37.5625 L 37.796875 -35.4375 C 38.109375 -34.65625 38.378906 -33.847656 38.609375 -33.015625 C 38.847656 -32.191406 38.96875 -31.351562 38.96875 -30.5 C 38.96875 -29.082031 38.535156 -27.785156 37.671875 -26.609375 C 37.515625 -26.140625 37.296875 -25.628906 37.015625 -25.078125 C 36.742188 -24.523438 36.453125 -23.9375 36.140625 -23.3125 L 35.671875 -22.609375 L 32.5 -19.890625 C 32.101562 -19.578125 31.6875 -19.285156 31.25 -19.015625 C 30.820312 -18.742188 30.410156 -18.410156 30.015625 -18.015625 C 27.984375 -15.816406 26.101562 -13.460938 24.375 -10.953125 C 22.644531 -8.441406 21.382812 -6.242188 20.59375 -4.359375 C 19.8125 -2.472656 19.773438 -1.296875 20.484375 -0.828125 C 20.953125 -1.054688 21.71875 -1.71875 22.78125 -2.8125 C 23.84375 -3.914062 25 -5.234375 26.25 -6.765625 C 27.507812 -8.296875 28.726562 -9.804688 29.90625 -11.296875 C 31.082031 -12.796875 32.023438 -14.070312 32.734375 -15.125 C 33.441406 -16.1875 33.710938 -16.796875 33.546875 -16.953125 L 33.546875 -16.84375 C 33.234375 -17.15625 33.175781 -17.390625 33.375 -17.546875 C 33.570312 -17.703125 33.867188 -17.78125 34.265625 -17.78125 C 36.304688 -17.3125 37.972656 -16.191406 39.265625 -14.421875 C 40.554688 -12.660156 41.203125 -10.757812 41.203125 -8.71875 C 41.203125 -6.28125 40.613281 -3.296875 39.4375 0.234375 C 41.40625 -1.253906 43.566406 -3.253906 45.921875 -5.765625 C 48.273438 -8.273438 50.585938 -11.039062 52.859375 -14.0625 C 55.140625 -17.09375 57.023438 -20.097656 58.515625 -23.078125 C 58.753906 -23.628906 59.1875 -23.90625 59.8125 -23.90625 C 60.039062 -23.90625 60.234375 -23.863281 60.390625 -23.78125 C 61.179688 -23.3125 61.34375 -22.445312 60.875 -21.1875 L 60.515625 -20.25 L 60.515625 -20.375 L 60.28125 -19.890625 C 59.96875 -19.109375 59.59375 -18.363281 59.15625 -17.65625 C 58.726562 -16.945312 58.203125 -16.164062 57.578125 -15.3125 L 56.625 -14.125 C 56.3125 -13.570312 56 -13.0625 55.6875 -12.59375 C 55.375 -12.125 55.019531 -11.65625 54.625 -11.1875 L 53.09375 -9.0625 C 52.382812 -8.039062 51.675781 -7 50.96875 -5.9375 C 50.269531 -4.882812 49.523438 -3.960938 48.734375 -3.171875 L 48.734375 -3.296875 C 46.773438 -1.179688 44.832031 0.71875 42.90625 2.40625 C 40.988281 4.09375 39.207031 5.332031 37.5625 6.125 C 37.476562 6.125 37.4375 6.378906 37.4375 6.890625 C 37.4375 7.398438 37.4375 7.734375 37.4375 7.890625 L 37.09375 12.359375 C 37.09375 12.515625 37.128906 12.671875 37.203125 12.828125 C 37.203125 14.316406 37.003906 15.769531 36.609375 17.1875 C 36.378906 17.582031 36.222656 18.210938 36.140625 19.078125 C 35.910156 19.703125 35.554688 20.484375 35.078125 21.421875 C 34.609375 22.367188 34.179688 23.273438 33.796875 24.140625 L 33.3125 25.078125 C 32.53125 26.804688 31.550781 28.515625 30.375 30.203125 C 29.195312 31.890625 28.0625 33.515625 26.96875 35.078125 L 26.015625 36.5 C 25.390625 37.519531 24.742188 38.398438 24.078125 39.140625 C 23.410156 39.890625 22.722656 40.617188 22.015625 41.328125 L 20.609375 42.859375 L 20.609375 42.734375 C 18.722656 44.703125 16.347656 46.566406 13.484375 48.328125 C 10.617188 50.097656 7.769531 50.984375 4.9375 50.984375 C 4.550781 50.984375 4.179688 50.960938 3.828125 50.921875 C 3.472656 50.878906 3.097656 50.820312 2.703125 50.75 C 0.347656 49.957031 -1.648438 48.738281 -3.296875 47.09375 C -4.941406 45.445312 -6.039062 43.40625 -6.59375 40.96875 C -6.832031 39.875 -6.363281 38.421875 -5.1875 36.609375 L -5.1875 36.140625 C -4.707031 35.273438 -4.15625 34.410156 -3.53125 33.546875 C -2.90625 32.691406 -2.238281 31.910156 -1.53125 31.203125 C 0.507812 28.847656 2.765625 26.765625 5.234375 24.953125 C 7.710938 23.148438 10.242188 21.382812 12.828125 19.65625 C 14.640625 18.476562 16.191406 17.457031 17.484375 16.59375 C 18.773438 15.738281 19.617188 15.070312 20.015625 14.59375 C 20.484375 13.96875 21.265625 12.867188 22.359375 11.296875 C 23.460938 9.734375 24.660156 7.988281 25.953125 6.0625 C 27.253906 4.132812 28.375 2.367188 29.3125 0.765625 C 30.257812 -0.835938 30.769531 -1.992188 30.84375 -2.703125 C 30.84375 -2.859375 30.863281 -2.992188 30.90625 -3.109375 C 30.945312 -3.234375 30.96875 -3.335938 30.96875 -3.421875 C 31.039062 -3.804688 31.097656 -4.195312 31.140625 -4.59375 C 31.179688 -4.988281 31.203125 -5.34375 31.203125 -5.65625 C 31.203125 -5.8125 31.203125 -6.003906 31.203125 -6.234375 C 31.203125 -6.472656 31.160156 -6.671875 31.078125 -6.828125 C 30.691406 -6.429688 30.257812 -5.882812 29.78125 -5.1875 Z M 8.359375 -1.0625 L 8.359375 -2.234375 C 8.359375 -2.160156 8.378906 -1.925781 8.421875 -1.53125 C 8.460938 -1.132812 8.441406 -0.976562 8.359375 -1.0625 Z M 8.359375 -1.0625 "/></g></g></g><g fill="#27b4a7" fill-opacity="1"><g transform="translate(87.846345, 108.04794)"><g><path d="M 8.359375 -2.59375 L 6.234375 -0.234375 C 6.003906 -0.234375 5.492188 -0.664062 4.703125 -1.53125 C 3.921875 -2.394531 3.132812 -3.59375 2.34375 -5.125 C 1.5625 -6.65625 1.054688 -8.398438 0.828125 -10.359375 C 0.742188 -10.910156 0.757812 -11.398438 0.875 -11.828125 C 1 -12.265625 1.097656 -12.753906 1.171875 -13.296875 C 1.171875 -13.460938 1.191406 -13.625 1.234375 -13.78125 C 1.273438 -13.9375 1.296875 -14.050781 1.296875 -14.125 C 1.140625 -14.207031 1.0625 -14.363281 1.0625 -14.59375 C 0.976562 -15.695312 1.132812 -16.9375 1.53125 -18.3125 C 1.925781 -19.6875 2.316406 -21 2.703125 -22.25 L 2 -25.1875 L 4.359375 -31.3125 L 5.1875 -35.796875 C 5.5 -37.597656 5.847656 -39.441406 6.234375 -41.328125 C 6.628906 -43.210938 7.039062 -44.859375 7.46875 -46.265625 C 7.90625 -47.679688 8.320312 -48.503906 8.71875 -48.734375 C 9.738281 -49.835938 10.695312 -50.78125 11.59375 -51.5625 C 12.5 -52.351562 13.109375 -52.75 13.421875 -52.75 C 14.515625 -52.75 15.863281 -51.90625 17.46875 -50.21875 C 19.082031 -48.53125 20.050781 -45.957031 20.375 -42.5 C 20.53125 -41.320312 20.507812 -40.164062 20.3125 -39.03125 C 20.113281 -37.894531 19.9375 -36.851562 19.78125 -35.90625 C 19.695312 -35.4375 19.613281 -35.101562 19.53125 -34.90625 C 19.457031 -34.707031 19.421875 -34.453125 19.421875 -34.140625 L 21.1875 -36.140625 C 22.050781 -37.316406 23.148438 -38.648438 24.484375 -40.140625 C 25.816406 -41.640625 27.191406 -43.09375 28.609375 -44.5 C 30.023438 -45.914062 31.335938 -47.09375 32.546875 -48.03125 C 33.765625 -48.976562 34.726562 -49.453125 35.4375 -49.453125 C 36.613281 -49.453125 37.648438 -48.921875 38.546875 -47.859375 C 39.453125 -46.796875 40.21875 -45.5 40.84375 -43.96875 C 41.476562 -42.4375 41.875 -40.96875 42.03125 -39.5625 C 42.03125 -38.613281 41.910156 -37.59375 41.671875 -36.5 L 43.921875 -38.734375 L 46.5 -40.96875 L 46.390625 -40.96875 L 47.09375 -41.5625 C 48.269531 -42.738281 49.503906 -43.972656 50.796875 -45.265625 C 52.097656 -46.566406 53.335938 -47.644531 54.515625 -48.5 C 55.691406 -49.363281 56.632812 -49.796875 57.34375 -49.796875 C 58.75 -49.796875 60.0625 -49.03125 61.28125 -47.5 C 62.5 -45.96875 63.222656 -44.1875 63.453125 -42.15625 C 63.453125 -41.832031 63.429688 -41.375 63.390625 -40.78125 C 63.359375 -40.195312 63.34375 -39.710938 63.34375 -39.328125 C 63.894531 -38.535156 64.207031 -37.789062 64.28125 -37.09375 C 64.207031 -36.070312 64.03125 -35.007812 63.75 -33.90625 C 63.476562 -32.8125 63.144531 -31.710938 62.75 -30.609375 C 62.90625 -30.296875 62.984375 -30 62.984375 -29.71875 C 62.984375 -29.445312 62.984375 -29.15625 62.984375 -28.84375 L 60.28125 -23.078125 L 60.390625 -23.078125 C 60.078125 -21.347656 59.742188 -19.617188 59.390625 -17.890625 C 59.046875 -16.171875 58.675781 -14.484375 58.28125 -12.828125 C 58.28125 -12.671875 58.296875 -12.472656 58.328125 -12.234375 C 58.367188 -12.003906 58.390625 -11.8125 58.390625 -11.65625 C 57.921875 -10.550781 57.546875 -9.585938 57.265625 -8.765625 C 56.992188 -7.941406 56.859375 -7.296875 56.859375 -6.828125 C 56.859375 -6.671875 56.9375 -6.515625 57.09375 -6.359375 C 58.195312 -6.753906 59.550781 -7.734375 61.15625 -9.296875 C 62.769531 -10.867188 64.4375 -12.691406 66.15625 -14.765625 C 67.882812 -16.847656 69.457031 -18.910156 70.875 -20.953125 C 72.289062 -22.992188 73.3125 -24.679688 73.9375 -26.015625 C 75.269531 -28.296875 76.625 -30.472656 78 -32.546875 C 79.375 -34.628906 80.453125 -35.671875 81.234375 -35.671875 C 82.097656 -35.671875 82.53125 -35.238281 82.53125 -34.375 C 82.6875 -33.820312 82.566406 -33.234375 82.171875 -32.609375 L 80.765625 -30.25 L 80.765625 -30.375 C 79.742188 -28.414062 78.488281 -26.195312 77 -23.71875 C 75.507812 -21.25 73.9375 -18.835938 72.28125 -16.484375 L 70.765625 -14.359375 C 69.347656 -12.316406 67.851562 -10.316406 66.28125 -8.359375 C 64.71875 -6.398438 62.992188 -4.769531 61.109375 -3.46875 C 59.222656 -2.175781 57.0625 -1.53125 54.625 -1.53125 C 54.3125 -1.53125 54.035156 -1.546875 53.796875 -1.578125 C 53.566406 -1.617188 53.296875 -1.679688 52.984375 -1.765625 L 52.75 -1.765625 C 51.175781 -2.078125 49.78125 -3.078125 48.5625 -4.765625 C 47.34375 -6.453125 46.539062 -8.59375 46.15625 -11.1875 C 45.757812 -11.8125 45.484375 -12.554688 45.328125 -13.421875 C 45.242188 -14.910156 45.476562 -16.867188 46.03125 -19.296875 C 46.582031 -21.734375 47.210938 -24.015625 47.921875 -26.140625 C 47.835938 -27.628906 48.03125 -29.234375 48.5 -30.953125 C 48.976562 -32.679688 49.585938 -34.367188 50.328125 -36.015625 C 51.078125 -37.671875 51.726562 -39.085938 52.28125 -40.265625 C 52.4375 -40.660156 52.609375 -40.992188 52.796875 -41.265625 C 52.992188 -41.535156 53.132812 -41.789062 53.21875 -42.03125 C 52.269531 -41.632812 51.007812 -40.726562 49.4375 -39.3125 C 47.875 -37.90625 46.269531 -36.21875 44.625 -34.25 C 42.976562 -32.289062 41.523438 -30.253906 40.265625 -28.140625 C 40.347656 -27.828125 40.445312 -27.550781 40.5625 -27.3125 C 40.675781 -27.082031 40.773438 -26.847656 40.859375 -26.609375 C 41.015625 -26.140625 41.1875 -25.707031 41.375 -25.3125 C 41.570312 -24.914062 41.671875 -24.523438 41.671875 -24.140625 C 41.671875 -24.054688 41.648438 -23.640625 41.609375 -22.890625 C 41.578125 -22.148438 41.484375 -21.269531 41.328125 -20.25 C 41.085938 -18.519531 40.867188 -16.632812 40.671875 -14.59375 C 40.484375 -12.550781 40.425781 -11.375 40.5 -11.0625 C 39.875 -10.28125 39.363281 -9.359375 38.96875 -8.296875 C 38.570312 -7.234375 37.984375 -6.113281 37.203125 -4.9375 C 36.421875 -5.019531 35.457031 -5.175781 34.3125 -5.40625 C 33.175781 -5.644531 32.0625 -6.039062 30.96875 -6.59375 C 30.882812 -6.59375 30.84375 -6.550781 30.84375 -6.46875 C 30.84375 -6.394531 30.726562 -6.359375 30.5 -6.359375 C 29.863281 -6.359375 28.878906 -7.179688 27.546875 -8.828125 C 26.210938 -10.472656 25.46875 -12.472656 25.3125 -14.828125 C 25.15625 -16.554688 25.3125 -18.554688 25.78125 -20.828125 C 26.25 -23.109375 26.835938 -25.347656 27.546875 -27.546875 L 27.3125 -28.015625 L 27.3125 -28.25 C 27.3125 -28.726562 27.503906 -29.457031 27.890625 -30.4375 C 28.285156 -31.414062 28.644531 -32.296875 28.96875 -33.078125 C 28.96875 -33.234375 29.046875 -33.46875 29.203125 -33.78125 C 29.359375 -34.101562 29.472656 -34.378906 29.546875 -34.609375 L 29.203125 -36.03125 L 30.375 -38.609375 C 30.769531 -39.472656 31.101562 -40.179688 31.375 -40.734375 C 31.644531 -41.285156 31.820312 -41.71875 31.90625 -42.03125 C 31.28125 -41.632812 30.394531 -40.804688 29.25 -39.546875 C 28.113281 -38.296875 26.878906 -36.847656 25.546875 -35.203125 C 24.210938 -33.554688 22.957031 -31.867188 21.78125 -30.140625 L 21.78125 -30.25 L 18.125 -21.65625 L 15.3125 -12.71875 L 15.3125 -12.125 C 15.3125 -11.726562 15.347656 -11.453125 15.421875 -11.296875 L 14.359375 -8.59375 C 13.816406 -7.101562 13.191406 -5.785156 12.484375 -4.640625 C 11.773438 -3.503906 10.398438 -2.820312 8.359375 -2.59375 Z M 8.359375 -2.59375 "/></g></g></g><g fill="#27b4a7" fill-opacity="1"><g transform="translate(158.370773, 108.04794)"><g><path d="M 30.015625 -16.25 L 29.3125 -14.953125 C 28.601562 -13.929688 27.859375 -12.867188 27.078125 -11.765625 C 26.296875 -10.671875 25.429688 -9.613281 24.484375 -8.59375 L 23.421875 -7.421875 C 22.878906 -6.867188 22.351562 -6.273438 21.84375 -5.640625 C 21.332031 -5.015625 20.800781 -4.46875 20.25 -4 L 19.65625 -3.65625 L 19.78125 -3.65625 C 19 -3.101562 18.234375 -2.585938 17.484375 -2.109375 C 16.734375 -1.640625 16.007812 -1.25 15.3125 -0.9375 L 15.3125 -1.0625 C 14.519531 -0.664062 13.710938 -0.410156 12.890625 -0.296875 C 12.066406 -0.179688 11.222656 -0.125 10.359375 -0.125 C 8.003906 -0.59375 6.117188 -1.628906 4.703125 -3.234375 C 3.296875 -4.847656 2.296875 -6.753906 1.703125 -8.953125 C 1.117188 -11.148438 0.828125 -13.304688 0.828125 -15.421875 C 0.828125 -15.816406 0.84375 -16.191406 0.875 -16.546875 C 0.914062 -16.898438 0.9375 -17.234375 0.9375 -17.546875 L 0.9375 -19.65625 C 1.09375 -20.832031 1.289062 -22.046875 1.53125 -23.296875 C 1.769531 -24.554688 2.046875 -25.894531 2.359375 -27.3125 L 4.234375 -33.3125 C 4.941406 -35.039062 5.628906 -36.75 6.296875 -38.4375 C 6.960938 -40.125 7.53125 -41.753906 8 -43.328125 L 8 -44.03125 C 8.394531 -45.914062 9.144531 -47.09375 10.25 -47.5625 C 10.632812 -47.875 11.222656 -48.03125 12.015625 -48.03125 C 14.367188 -48.03125 16.210938 -47.007812 17.546875 -44.96875 C 18.878906 -42.925781 19.703125 -40.890625 20.015625 -38.859375 C 20.171875 -37.597656 19.972656 -36.144531 19.421875 -34.5 L 19.1875 -33.546875 C 19.1875 -33.390625 19.226562 -33.3125 19.3125 -33.3125 L 19.421875 -32.96875 C 19.503906 -32.8125 19.546875 -32.59375 19.546875 -32.3125 C 19.546875 -32.039062 19.546875 -31.828125 19.546875 -31.671875 C 19.617188 -31.515625 19.65625 -31.28125 19.65625 -30.96875 C 19.65625 -30.65625 19.65625 -30.414062 19.65625 -30.25 C 19.65625 -30.019531 19.65625 -29.785156 19.65625 -29.546875 C 19.65625 -29.316406 19.695312 -29.082031 19.78125 -28.84375 C 19.46875 -27.90625 19.148438 -27.003906 18.828125 -26.140625 C 18.515625 -25.273438 18.203125 -24.488281 17.890625 -23.78125 C 17.816406 -23.3125 17.582031 -22.722656 17.1875 -22.015625 L 17.1875 -21.3125 C 16.007812 -18.09375 15.109375 -14.953125 14.484375 -11.890625 L 14.59375 -11.78125 C 14.675781 -11.457031 14.5625 -11.140625 14.25 -10.828125 L 13.78125 -10.359375 C 13.382812 -9.578125 13.046875 -8.867188 12.765625 -8.234375 C 12.492188 -7.609375 12.359375 -7.019531 12.359375 -6.46875 C 12.359375 -5.53125 12.867188 -4.941406 13.890625 -4.703125 C 14.671875 -5.023438 16.082031 -6.085938 18.125 -7.890625 C 18.832031 -8.285156 19.519531 -8.816406 20.1875 -9.484375 C 20.851562 -10.148438 21.460938 -10.796875 22.015625 -11.421875 L 22.84375 -12.359375 C 24.25 -14.085938 25.738281 -16.085938 27.3125 -18.359375 C 28.882812 -20.640625 30.375 -22.976562 31.78125 -25.375 C 33.195312 -27.769531 34.414062 -29.988281 35.4375 -32.03125 C 35.988281 -32.570312 36.578125 -32.84375 37.203125 -32.84375 C 37.597656 -32.84375 37.910156 -32.664062 38.140625 -32.3125 C 38.378906 -31.957031 38.34375 -31.390625 38.03125 -30.609375 C 38.1875 -30.367188 38.144531 -30.132812 37.90625 -29.90625 L 37.90625 -29.78125 C 37.4375 -29.15625 37.046875 -28.53125 36.734375 -27.90625 L 35.796875 -26.25 C 35.003906 -25 34.175781 -23.585938 33.3125 -22.015625 C 32.457031 -20.441406 31.476562 -18.832031 30.375 -17.1875 L 30.375 -17.3125 L 30.015625 -16.359375 Z M 28.96875 -67.9375 L 27.546875 -65.578125 C 26.523438 -63.847656 25.757812 -62.75 25.25 -62.28125 C 24.738281 -61.8125 24.015625 -61.578125 23.078125 -61.578125 C 21.503906 -61.734375 19.929688 -62.28125 18.359375 -63.21875 C 17.578125 -63.925781 16.851562 -64.945312 16.1875 -66.28125 C 15.519531 -67.613281 15.1875 -69.066406 15.1875 -70.640625 C 15.101562 -71.898438 15.257812 -72.941406 15.65625 -73.765625 C 16.050781 -74.585938 16.523438 -75.273438 17.078125 -75.828125 C 18.878906 -77.472656 20.679688 -78.296875 22.484375 -78.296875 C 23.347656 -78.367188 24.503906 -78.128906 25.953125 -77.578125 C 27.410156 -77.035156 28.648438 -76.332031 29.671875 -75.46875 C 30.453125 -74.84375 30.960938 -74.132812 31.203125 -73.34375 C 31.273438 -72.71875 31.210938 -72.148438 31.015625 -71.640625 C 30.828125 -71.128906 30.535156 -70.640625 30.140625 -70.171875 L 30.25 -70.171875 C 30.09375 -69.859375 29.914062 -69.503906 29.71875 -69.109375 C 29.53125 -68.710938 29.28125 -68.320312 28.96875 -67.9375 Z M 28.96875 -67.9375 "/></g></g></g><g fill="#27b4a7" fill-opacity="1"><g transform="translate(186.745378, 108.04794)"><g><path d="M 2 -23.546875 C 2 -23.628906 2.3125 -24.238281 2.9375 -25.375 C 3.570312 -26.507812 4.257812 -27.722656 5 -29.015625 C 5.75 -30.316406 6.28125 -31.238281 6.59375 -31.78125 C 7.457031 -33.351562 8.320312 -35.082031 9.1875 -36.96875 C 10.050781 -38.851562 10.441406 -40.1875 10.359375 -40.96875 C 10.359375 -41.207031 10.082031 -41.71875 9.53125 -42.5 C 8.988281 -43.28125 8.398438 -44.066406 7.765625 -44.859375 C 7.140625 -45.722656 6.550781 -46.566406 6 -47.390625 C 5.457031 -48.210938 5.1875 -48.78125 5.1875 -49.09375 L 5.0625 -49.6875 C 4.75 -50.15625 4.59375 -50.625 4.59375 -51.09375 C 4.507812 -53.132812 4.722656 -55.3125 5.234375 -57.625 C 5.742188 -59.945312 6.53125 -62.144531 7.59375 -64.21875 C 8.65625 -66.300781 9.96875 -68.007812 11.53125 -69.34375 C 13.101562 -70.675781 14.875 -71.34375 16.84375 -71.34375 C 18.488281 -71.34375 19.9375 -70.851562 21.1875 -69.875 C 22.445312 -68.894531 23.15625 -67.503906 23.3125 -65.703125 C 23.46875 -63.816406 23.210938 -61.695312 22.546875 -59.34375 C 21.878906 -56.988281 21.054688 -54.671875 20.078125 -52.390625 C 19.097656 -50.117188 18.175781 -48.117188 17.3125 -46.390625 C 16.914062 -45.523438 16.617188 -44.914062 16.421875 -44.5625 C 16.222656 -44.207031 16.046875 -43.832031 15.890625 -43.4375 C 15.890625 -43.4375 15.910156 -43.457031 15.953125 -43.5 C 15.992188 -43.539062 16.050781 -43.5625 16.125 -43.5625 C 16.28125 -43.5625 16.457031 -43.421875 16.65625 -43.140625 C 16.851562 -42.867188 17.148438 -42.734375 17.546875 -42.734375 L 17.78125 -42.734375 L 18.25 -41.796875 L 18.25 -41.90625 C 18.320312 -41.832031 18.359375 -41.773438 18.359375 -41.734375 C 18.359375 -41.691406 18.359375 -41.671875 18.359375 -41.671875 C 18.835938 -41.671875 19.347656 -41.789062 19.890625 -42.03125 L 19.78125 -42.03125 L 24.484375 -44.859375 C 26.296875 -45.953125 27.804688 -46.753906 29.015625 -47.265625 C 30.234375 -47.773438 31 -48.070312 31.3125 -48.15625 C 31.863281 -48.15625 32.84375 -47.679688 34.25 -46.734375 C 35.664062 -45.796875 37 -44.640625 38.25 -43.265625 C 39.507812 -41.890625 40.179688 -40.5 40.265625 -39.09375 C 40.347656 -38.382812 40.132812 -37.476562 39.625 -36.375 C 39.113281 -35.28125 38.425781 -33.945312 37.5625 -32.375 C 36.769531 -30.882812 35.898438 -29.175781 34.953125 -27.25 C 34.015625 -25.332031 33.117188 -23.117188 32.265625 -20.609375 L 29.78125 -14.953125 C 29.082031 -12.359375 28.734375 -9.804688 28.734375 -7.296875 L 28.734375 -5.53125 L 28.96875 -3.171875 C 28.96875 -2.785156 28.925781 -2.550781 28.84375 -2.46875 L 28.96875 -1.40625 C 29.195312 0.3125 29.523438 2.113281 29.953125 4 C 30.390625 5.882812 31.117188 6.828125 32.140625 6.828125 C 32.453125 6.828125 32.921875 6.628906 33.546875 6.234375 C 33.710938 6.390625 33.988281 6.46875 34.375 6.46875 C 35.476562 6.46875 36.851562 5.78125 38.5 4.40625 C 40.144531 3.039062 41.832031 1.222656 43.5625 -1.046875 C 45.289062 -3.328125 46.9375 -5.820312 48.5 -8.53125 C 50.070312 -11.238281 51.367188 -13.925781 52.390625 -16.59375 C 53.171875 -18.476562 53.800781 -20.207031 54.28125 -21.78125 C 54.351562 -22.09375 54.566406 -22.78125 54.921875 -23.84375 C 55.273438 -24.90625 55.6875 -25.941406 56.15625 -26.953125 C 56.625 -27.972656 57.019531 -28.484375 57.34375 -28.484375 C 57.414062 -28.484375 57.453125 -28.171875 57.453125 -27.546875 C 57.453125 -27.234375 57.492188 -26.957031 57.578125 -26.71875 L 57.8125 -26.484375 L 57.6875 -26.484375 C 58.082031 -26.253906 58.238281 -25.609375 58.15625 -24.546875 C 58.082031 -23.484375 57.300781 -21.148438 55.8125 -17.546875 L 55.09375 -15.546875 L 54.15625 -13.65625 C 53.53125 -12.40625 52.785156 -10.929688 51.921875 -9.234375 C 51.054688 -7.546875 50.425781 -6.429688 50.03125 -5.890625 L 48.859375 -4.125 C 48.078125 -2.945312 47.390625 -1.75 46.796875 -0.53125 C 46.210938 0.6875 45.601562 1.921875 44.96875 3.171875 C 42.300781 6.785156 39.769531 9.101562 37.375 10.125 C 34.988281 11.144531 32.695312 11.65625 30.5 11.65625 C 25.625 11.257812 21.832031 9.296875 19.125 5.765625 C 16.414062 2.234375 14.828125 -2.160156 14.359375 -7.421875 C 14.285156 -8.128906 14.328125 -8.953125 14.484375 -9.890625 C 14.640625 -10.828125 14.832031 -11.804688 15.0625 -12.828125 C 15.300781 -13.773438 15.519531 -14.757812 15.71875 -15.78125 C 15.914062 -16.800781 16.050781 -17.78125 16.125 -18.71875 C 16.125 -20.675781 16.492188 -22.632812 17.234375 -24.59375 C 17.984375 -26.5625 18.753906 -28.289062 19.546875 -29.78125 C 20.171875 -31.039062 20.738281 -32.257812 21.25 -33.4375 C 21.757812 -34.613281 21.9375 -35.710938 21.78125 -36.734375 C 21.78125 -36.648438 21.757812 -36.628906 21.71875 -36.671875 C 21.675781 -36.710938 21.65625 -36.734375 21.65625 -36.734375 L 21.78125 -37.671875 C 21.863281 -37.828125 21.90625 -38.0625 21.90625 -38.375 L 21.90625 -38.5 C 21.738281 -38.5 21.617188 -38.457031 21.546875 -38.375 C 21.304688 -38.300781 21.066406 -38.1875 20.828125 -38.03125 C 20.597656 -37.875 20.40625 -37.796875 20.25 -37.796875 C 20.09375 -37.796875 19.972656 -37.832031 19.890625 -37.90625 C 19.578125 -37.75 19.382812 -37.671875 19.3125 -37.671875 C 18.675781 -37.671875 17.890625 -37.867188 16.953125 -38.265625 C 16.640625 -38.421875 16.242188 -38.597656 15.765625 -38.796875 C 15.296875 -38.992188 14.867188 -39.09375 14.484375 -39.09375 C 14.328125 -39.09375 14.171875 -39.015625 14.015625 -38.859375 C 13.703125 -38.460938 13.382812 -37.988281 13.0625 -37.4375 C 12.75 -36.882812 12.4375 -36.21875 12.125 -35.4375 C 11.96875 -34.882812 11.890625 -34.507812 11.890625 -34.3125 C 11.890625 -34.125 11.691406 -33.789062 11.296875 -33.3125 L 11.296875 -33.4375 L 9.53125 -29.78125 C 9.375 -29.3125 8.984375 -28.585938 8.359375 -27.609375 C 7.734375 -26.628906 7.066406 -25.609375 6.359375 -24.546875 C 5.648438 -23.484375 4.984375 -22.5625 4.359375 -21.78125 C 3.734375 -21 3.335938 -20.609375 3.171875 -20.609375 C 2.859375 -20.609375 2.625 -20.820312 2.46875 -21.25 C 2.3125 -21.6875 2.15625 -22.453125 2 -23.546875 Z M -45.921875 11.53125 C -44.585938 11.53125 -43.25 11.53125 -41.90625 11.53125 C -40.570312 11.53125 -39.28125 11.570312 -38.03125 11.65625 C -31.039062 10.71875 -25.070312 10.25 -20.125 10.25 C -13.375 10.25 -7.625 10.894531 -2.875 12.1875 C 1.863281 13.476562 6.472656 15.03125 10.953125 16.84375 C 14.878906 17.15625 18.054688 17.9375 20.484375 19.1875 C 22.921875 20.445312 24.863281 21.859375 26.3125 23.421875 C 27.757812 24.992188 28.878906 26.445312 29.671875 27.78125 L 28.015625 29.671875 C 25.503906 32.578125 23.582031 34.675781 22.25 35.96875 C 20.914062 37.257812 19.894531 37.90625 19.1875 37.90625 C 18.632812 37.90625 18.0625 37.429688 17.46875 36.484375 C 16.882812 35.546875 16.164062 34.332031 15.3125 32.84375 C 14.519531 31.507812 12.984375 30.289062 10.703125 29.1875 C 8.429688 28.09375 5.765625 27.054688 2.703125 26.078125 C -0.359375 25.097656 -3.535156 24.175781 -6.828125 23.3125 C -8.554688 22.84375 -10.222656 22.390625 -11.828125 21.953125 C -13.441406 21.523438 -15.03125 21.035156 -16.59375 20.484375 C -22.09375 18.910156 -27.390625 17.867188 -32.484375 17.359375 C -37.585938 16.847656 -43.242188 16.4375 -49.453125 16.125 L -50.75 16.125 C -50.90625 16.125 -50.984375 16.125 -50.984375 16.125 C -51.054688 16.125 -51.128906 16.082031 -51.203125 16 C -51.285156 15.925781 -51.40625 15.890625 -51.5625 15.890625 C -51.644531 15.890625 -51.722656 15.929688 -51.796875 16.015625 C -53.765625 16.328125 -56.082031 16.5625 -58.75 16.71875 C -60.476562 16.800781 -62.1875 16.921875 -63.875 17.078125 C -65.5625 17.234375 -67.03125 17.46875 -68.28125 17.78125 C -69.226562 18.007812 -70.546875 18.160156 -72.234375 18.234375 C -73.921875 18.316406 -75.585938 18.359375 -77.234375 18.359375 C -78.566406 18.441406 -79.800781 18.484375 -80.9375 18.484375 C -82.082031 18.484375 -82.96875 18.5625 -83.59375 18.71875 C -83.90625 18.875 -84.179688 18.953125 -84.421875 18.953125 C -84.492188 18.953125 -84.550781 18.929688 -84.59375 18.890625 C -84.632812 18.859375 -84.691406 18.84375 -84.765625 18.84375 L -90.765625 18.71875 L -86.1875 16.71875 C -82.019531 15.382812 -79.09375 14.519531 -77.40625 14.125 C -75.71875 13.738281 -74.601562 13.503906 -74.0625 13.421875 C -73.195312 13.421875 -72.347656 13.359375 -71.515625 13.234375 C -70.691406 13.117188 -69.890625 12.984375 -69.109375 12.828125 C -65.890625 12.441406 -62.28125 12.128906 -58.28125 11.890625 C -54.28125 11.648438 -50.160156 11.53125 -45.921875 11.53125 Z M 17.65625 -61.8125 C 16.945312 -61.5 16.160156 -60.710938 15.296875 -59.453125 C 14.441406 -58.203125 13.679688 -56.8125 13.015625 -55.28125 C 12.347656 -53.75 12.015625 -52.394531 12.015625 -51.21875 C 12.171875 -50.351562 12.382812 -49.507812 12.65625 -48.6875 C 12.925781 -47.863281 13.179688 -47.175781 13.421875 -46.625 L 13.546875 -46.15625 C 14.878906 -48.976562 16.035156 -51.78125 17.015625 -54.5625 C 17.992188 -57.351562 18.40625 -59.414062 18.25 -60.75 C 18.25 -61.300781 18.050781 -61.65625 17.65625 -61.8125 Z M 17.65625 -61.8125 "/></g></g></g><g fill="#27b4a7" fill-opacity="1"><g transform="translate(238.314165, 108.04794)"><g><path d="M 15.78125 -1.171875 L 13.65625 -1.171875 C 13.257812 -0.785156 12.828125 -0.59375 12.359375 -0.59375 C 12.046875 -0.59375 11.65625 -0.75 11.1875 -1.0625 C 10.945312 -1.21875 10.726562 -1.332031 10.53125 -1.40625 C 10.34375 -1.488281 10.085938 -1.53125 9.765625 -1.53125 C 6.867188 -1.53125 4.578125 -2.664062 2.890625 -4.9375 C 1.203125 -7.21875 0.160156 -9.65625 -0.234375 -12.25 C -0.234375 -14.914062 -0.0546875 -17.03125 0.296875 -18.59375 C 0.648438 -20.164062 1.453125 -22.171875 2.703125 -24.609375 L 2.59375 -24.609375 C 3.6875 -27.671875 5.175781 -30.613281 7.0625 -33.4375 C 8.945312 -36.257812 11.046875 -38.769531 13.359375 -40.96875 C 15.679688 -43.164062 17.957031 -44.929688 20.1875 -46.265625 C 22.425781 -47.597656 24.445312 -48.304688 26.25 -48.390625 C 27.820312 -48.460938 29.234375 -48.109375 30.484375 -47.328125 C 31.742188 -46.546875 32.375 -46.15625 32.375 -46.15625 C 32.457031 -47.019531 32.578125 -48.234375 32.734375 -49.796875 C 32.890625 -51.367188 33.101562 -53.035156 33.375 -54.796875 C 33.65625 -56.566406 33.910156 -58.117188 34.140625 -59.453125 L 34.5 -61.578125 C 34.726562 -62.515625 34.921875 -63.394531 35.078125 -64.21875 C 35.242188 -65.039062 35.363281 -65.847656 35.4375 -66.640625 C 35.59375 -67.503906 35.828125 -68.617188 36.140625 -69.984375 C 36.453125 -71.359375 36.769531 -72.71875 37.09375 -74.0625 C 37.007812 -74.445312 36.925781 -75.128906 36.84375 -76.109375 C 36.769531 -77.097656 36.734375 -78.140625 36.734375 -79.234375 C 36.734375 -80.097656 36.769531 -80.941406 36.84375 -81.765625 C 36.925781 -82.585938 37.046875 -83.273438 37.203125 -83.828125 L 37.796875 -83.59375 C 38.023438 -84.300781 38.273438 -85.101562 38.546875 -86 C 38.828125 -86.90625 39.007812 -87.398438 39.09375 -87.484375 C 40.96875 -88.023438 42.300781 -88.296875 43.09375 -88.296875 C 45.914062 -88.296875 47.972656 -87.628906 49.265625 -86.296875 C 50.566406 -84.960938 51.375 -82.921875 51.6875 -80.171875 C 51.6875 -80.097656 51.703125 -80.039062 51.734375 -80 C 51.773438 -79.957031 51.796875 -79.898438 51.796875 -79.828125 C 51.796875 -78.878906 51.773438 -78.03125 51.734375 -77.28125 C 51.703125 -76.539062 51.566406 -75.703125 51.328125 -74.765625 C 51.253906 -74.367188 51.21875 -73.9375 51.21875 -73.46875 C 51.21875 -73 51.21875 -72.523438 51.21875 -72.046875 C 51.21875 -71.503906 51.21875 -70.878906 51.21875 -70.171875 C 51.21875 -69.460938 51.253906 -68.753906 51.328125 -68.046875 C 51.410156 -67.265625 51.46875 -66.5 51.5 -65.75 C 51.539062 -65.007812 51.5625 -64.207031 51.5625 -63.34375 C 51.5625 -62.238281 51.503906 -61.078125 51.390625 -59.859375 C 51.273438 -58.648438 51.019531 -57.492188 50.625 -56.390625 C 50.625 -56.078125 50.503906 -55.625 50.265625 -55.03125 C 50.035156 -54.445312 49.800781 -53.84375 49.5625 -53.21875 C 49.25 -52.59375 48.953125 -51.941406 48.671875 -51.265625 C 48.398438 -50.597656 48.304688 -50.1875 48.390625 -50.03125 C 48.390625 -49.957031 48.328125 -49.507812 48.203125 -48.6875 C 48.085938 -47.863281 47.972656 -47.019531 47.859375 -46.15625 C 47.742188 -45.289062 47.644531 -44.738281 47.5625 -44.5 L 47.5625 -44.265625 C 47.644531 -44.191406 47.703125 -44.09375 47.734375 -43.96875 C 47.773438 -43.851562 47.835938 -43.71875 47.921875 -43.5625 C 47.765625 -41.988281 47.644531 -40.984375 47.5625 -40.546875 C 47.488281 -40.117188 47.253906 -39.4375 46.859375 -38.5 L 46.265625 -36.734375 C 46.191406 -36.492188 46.15625 -36.195312 46.15625 -35.84375 C 46.15625 -35.5 46.15625 -35.164062 46.15625 -34.84375 C 46.15625 -34.375 46.269531 -33.90625 46.5 -33.4375 C 46.5 -33.351562 46.476562 -33.289062 46.4375 -33.25 C 46.40625 -33.21875 46.390625 -33.160156 46.390625 -33.078125 L 46.390625 -32.609375 L 43.203125 -22.140625 C 43.203125 -22.054688 43.160156 -21.953125 43.078125 -21.828125 C 43.003906 -21.710938 42.929688 -21.578125 42.859375 -21.421875 C 41.441406 -18.523438 40.578125 -15.9375 40.265625 -13.65625 C 40.347656 -13.5 40.40625 -13.34375 40.4375 -13.1875 C 40.476562 -13.03125 40.5 -12.832031 40.5 -12.59375 L 40.5 -12.125 C 40.582031 -11.8125 40.625 -11.359375 40.625 -10.765625 C 40.625 -10.179688 40.546875 -9.691406 40.390625 -9.296875 L 40.390625 -9.421875 C 40.148438 -8.160156 39.953125 -7 39.796875 -5.9375 C 39.640625 -4.882812 39.597656 -3.925781 39.671875 -3.0625 C 39.828125 -2.59375 39.984375 -2.359375 40.140625 -2.359375 C 41.085938 -2.742188 42.265625 -3.703125 43.671875 -5.234375 C 45.085938 -6.765625 46.597656 -8.609375 48.203125 -10.765625 C 49.816406 -12.929688 51.40625 -15.226562 52.96875 -17.65625 C 54.539062 -20.09375 55.957031 -22.410156 57.21875 -24.609375 C 57.457031 -24.992188 57.75 -25.5625 58.09375 -26.3125 C 58.445312 -27.0625 58.820312 -27.90625 59.21875 -28.84375 C 59.925781 -30.414062 60.632812 -31.890625 61.34375 -33.265625 C 62.050781 -34.640625 62.675781 -35.328125 63.21875 -35.328125 C 64.007812 -35.328125 64.40625 -35.050781 64.40625 -34.5 C 64.476562 -34.1875 64.414062 -33.695312 64.21875 -33.03125 C 64.03125 -32.363281 63.582031 -31.359375 62.875 -30.015625 L 62.875 -29.078125 C 63.03125 -27.585938 62.554688 -25.859375 61.453125 -23.890625 C 60.359375 -21.929688 59.144531 -20.007812 57.8125 -18.125 C 57.5 -17.8125 57.222656 -17.421875 56.984375 -16.953125 C 56.585938 -16.171875 55.957031 -15.015625 55.09375 -13.484375 C 54.226562 -11.953125 53.226562 -10.34375 52.09375 -8.65625 C 50.957031 -6.96875 49.816406 -5.515625 48.671875 -4.296875 C 47.535156 -3.078125 46.5 -2.390625 45.5625 -2.234375 C 45.09375 -2.160156 44.703125 -1.867188 44.390625 -1.359375 C 44.078125 -0.847656 43.835938 -0.316406 43.671875 0.234375 C 43.515625 0.785156 43.359375 1.253906 43.203125 1.640625 C 43.046875 2.035156 42.8125 2.234375 42.5 2.234375 C 42.269531 2.234375 41.957031 2.035156 41.5625 1.640625 C 40.539062 1.960938 39.675781 2.203125 38.96875 2.359375 C 38.257812 2.515625 37.550781 2.628906 36.84375 2.703125 L 36.265625 2.703125 C 35.953125 2.785156 35.617188 2.882812 35.265625 3 C 34.910156 3.113281 34.535156 3.171875 34.140625 3.171875 C 33.117188 3.171875 31.976562 2.269531 30.71875 0.46875 C 29.46875 -1.332031 28.3125 -3.523438 27.25 -6.109375 C 26.195312 -8.703125 25.472656 -11.179688 25.078125 -13.546875 C 25.078125 -13.460938 25.054688 -13.421875 25.015625 -13.421875 C 24.972656 -13.421875 24.953125 -13.378906 24.953125 -13.296875 L 24.953125 -13.421875 C 24.640625 -12.796875 24.207031 -12.03125 23.65625 -11.125 C 23.113281 -10.21875 22.53125 -9.375 21.90625 -8.59375 L 18.71875 -4.59375 C 18.320312 -4.039062 17.8125 -3.332031 17.1875 -2.46875 C 16.5625 -1.601562 16.09375 -1.171875 15.78125 -1.171875 Z M 11.421875 -13.0625 L 11.890625 -12.125 L 12.125 -9.65625 C 12.125 -9.570312 12.144531 -9.507812 12.1875 -9.46875 C 12.226562 -9.4375 12.25 -9.378906 12.25 -9.296875 C 12.320312 -8.671875 12.4375 -7.945312 12.59375 -7.125 C 12.75 -6.300781 13.066406 -5.847656 13.546875 -5.765625 C 14.484375 -6.160156 15.71875 -7.257812 17.25 -9.0625 C 18.78125 -10.875 20.367188 -13.070312 22.015625 -15.65625 C 23.660156 -18.25 25.207031 -20.957031 26.65625 -23.78125 C 28.113281 -26.601562 29.273438 -29.289062 30.140625 -31.84375 C 31.003906 -34.394531 31.359375 -36.492188 31.203125 -38.140625 C 31.117188 -38.296875 31.054688 -38.492188 31.015625 -38.734375 C 30.984375 -38.972656 30.890625 -39.128906 30.734375 -39.203125 C 29.234375 -38.648438 27.519531 -37.296875 25.59375 -35.140625 C 23.675781 -32.984375 21.753906 -30.507812 19.828125 -27.71875 C 17.910156 -24.9375 16.242188 -22.328125 14.828125 -19.890625 L 14.828125 -20.015625 L 14.125 -18.609375 C 13.570312 -17.742188 13 -16.738281 12.40625 -15.59375 C 11.820312 -14.457031 11.492188 -13.613281 11.421875 -13.0625 Z M 11.421875 -13.0625 "/></g></g></g><g fill="#27b4a7" fill-opacity="1"><g transform="translate(292.708624, 108.04794)"><g><path d="M 25.671875 -48.5 C 25.984375 -48.5 26.648438 -48.441406 27.671875 -48.328125 C 28.691406 -48.210938 29.804688 -47.898438 31.015625 -47.390625 C 32.234375 -46.878906 33.351562 -46.070312 34.375 -44.96875 C 35.394531 -43.875 36.023438 -42.304688 36.265625 -40.265625 C 36.265625 -38.460938 35.867188 -36.734375 35.078125 -35.078125 C 35.003906 -34.765625 34.726562 -34.132812 34.25 -33.1875 C 33.78125 -32.25 33.210938 -31.269531 32.546875 -30.25 C 31.878906 -29.238281 31.273438 -28.414062 30.734375 -27.78125 L 30.140625 -27.3125 C 28.648438 -25.195312 26.765625 -23.273438 24.484375 -21.546875 C 24.015625 -20.992188 23.25 -20.265625 22.1875 -19.359375 C 21.132812 -18.460938 20.097656 -17.640625 19.078125 -16.890625 C 18.054688 -16.148438 17.3125 -15.660156 16.84375 -15.421875 L 13.890625 -14.015625 C 13.335938 -13.378906 12.984375 -12.414062 12.828125 -11.125 C 12.671875 -9.832031 12.59375 -8.476562 12.59375 -7.0625 C 12.59375 -5.96875 12.628906 -4.890625 12.703125 -3.828125 C 12.785156 -2.765625 12.867188 -1.878906 12.953125 -1.171875 C 13.023438 -0.546875 13.515625 -0.0390625 14.421875 0.34375 C 15.328125 0.738281 16.289062 0.9375 17.3125 0.9375 C 18.488281 0.9375 20.132812 0.410156 22.25 -0.640625 C 24.375 -1.703125 26.691406 -3.234375 29.203125 -5.234375 C 31.710938 -7.234375 34.066406 -9.648438 36.265625 -12.484375 C 36.421875 -12.867188 36.632812 -13.238281 36.90625 -13.59375 C 37.1875 -13.945312 37.40625 -14.28125 37.5625 -14.59375 C 37.945312 -15.226562 38.550781 -15.972656 39.375 -16.828125 C 40.207031 -17.691406 40.894531 -18.632812 41.4375 -19.65625 C 42.539062 -21.46875 43.617188 -23.21875 44.671875 -24.90625 C 45.734375 -26.59375 46.539062 -27.515625 47.09375 -27.671875 C 47.488281 -27.898438 47.84375 -28.015625 48.15625 -28.015625 L 48.734375 -28.25 L 48.734375 -28.140625 C 48.898438 -28.210938 49 -28.269531 49.03125 -28.3125 C 49.070312 -28.351562 49.09375 -28.375 49.09375 -28.375 C 49.25 -28.375 49.367188 -28.097656 49.453125 -27.546875 C 49.523438 -26.921875 49.304688 -26.210938 48.796875 -25.421875 C 48.285156 -24.640625 47.597656 -23.703125 46.734375 -22.609375 C 46.421875 -21.972656 45.953125 -21.164062 45.328125 -20.1875 C 44.703125 -19.207031 44.035156 -18.285156 43.328125 -17.421875 L 42.734375 -16.484375 C 42.734375 -16.398438 42.65625 -16.203125 42.5 -15.890625 L 42.15625 -14.828125 L 39.796875 -11.78125 C 39.085938 -10.832031 38.257812 -9.867188 37.3125 -8.890625 C 36.375 -7.910156 35.628906 -6.945312 35.078125 -6 L 34.84375 -5.765625 C 34.0625 -4.742188 33.097656 -3.644531 31.953125 -2.46875 C 30.816406 -1.289062 29.703125 -0.347656 28.609375 0.359375 L 24.953125 2.828125 C 23.460938 3.847656 22.050781 4.707031 20.71875 5.40625 C 19.382812 6.113281 17.816406 6.46875 16.015625 6.46875 C 14.441406 6.46875 12.691406 6.289062 10.765625 5.9375 C 8.847656 5.59375 7.222656 4.988281 5.890625 4.125 L 5.765625 4 C 4.742188 3.613281 3.625 2.789062 2.40625 1.53125 C 1.195312 0.269531 0.394531 -1.648438 0 -4.234375 L 0.125 -4.234375 C -0.195312 -4.703125 -0.453125 -5.191406 -0.640625 -5.703125 C -0.835938 -6.210938 -0.9375 -6.707031 -0.9375 -7.1875 C -0.9375 -7.1875 -0.9375 -7.554688 -0.9375 -8.296875 C -0.9375 -9.046875 -0.898438 -9.851562 -0.828125 -10.71875 C -0.828125 -11.582031 -0.804688 -12.363281 -0.765625 -13.0625 C -0.722656 -13.769531 -0.742188 -14.164062 -0.828125 -14.25 C -0.828125 -15.5 -0.75 -16.75 -0.59375 -18 C -0.4375 -19.257812 -0.28125 -20.519531 -0.125 -21.78125 C -0.125 -22.019531 -0.0820312 -22.175781 0 -22.25 C 0 -22.40625 0.0195312 -22.5625 0.0625 -22.71875 C 0.101562 -22.875 0.125 -22.992188 0.125 -23.078125 C 0.4375 -24.410156 0.847656 -25.6875 1.359375 -26.90625 C 1.867188 -28.125 2.394531 -29.320312 2.9375 -30.5 L 3.765625 -32.734375 L 4.234375 -33.4375 C 4.867188 -34.375 5.578125 -35.46875 6.359375 -36.71875 C 7.140625 -37.976562 7.804688 -38.804688 8.359375 -39.203125 L 9.890625 -40.859375 C 10.515625 -41.640625 11.179688 -42.398438 11.890625 -43.140625 C 12.597656 -43.890625 13.304688 -44.539062 14.015625 -45.09375 C 14.398438 -45.488281 14.710938 -45.722656 14.953125 -45.796875 L 14.953125 -45.6875 L 15.546875 -46.15625 C 16.085938 -46.625 16.613281 -46.9375 17.125 -47.09375 C 17.632812 -47.25 18.085938 -47.328125 18.484375 -47.328125 C 18.640625 -47.328125 18.816406 -47.304688 19.015625 -47.265625 C 19.210938 -47.234375 19.390625 -47.21875 19.546875 -47.21875 L 20.375 -47.21875 C 20.6875 -47.21875 21.15625 -47.410156 21.78125 -47.796875 C 22.09375 -47.953125 22.40625 -48.085938 22.71875 -48.203125 C 23.03125 -48.328125 23.304688 -48.390625 23.546875 -48.390625 C 23.785156 -48.390625 23.941406 -48.347656 24.015625 -48.265625 C 24.328125 -48.421875 24.617188 -48.5 24.890625 -48.5 C 25.171875 -48.5 25.429688 -48.5 25.671875 -48.5 Z M 24.609375 -34.03125 L 24.015625 -33.546875 C 23.941406 -33.472656 23.84375 -33.316406 23.71875 -33.078125 C 23.601562 -32.847656 23.503906 -32.613281 23.421875 -32.375 C 23.421875 -32.300781 23.378906 -32.222656 23.296875 -32.140625 C 23.222656 -32.066406 23.1875 -31.988281 23.1875 -31.90625 C 21.625 -29.46875 20.269531 -27.109375 19.125 -24.828125 C 17.988281 -22.554688 17.226562 -20.832031 16.84375 -19.65625 C 17.3125 -19.894531 17.78125 -20.207031 18.25 -20.59375 C 18.71875 -20.988281 19.148438 -21.34375 19.546875 -21.65625 L 22.140625 -23.78125 C 24.492188 -26.0625 26.492188 -28.472656 28.140625 -31.015625 C 29.785156 -33.566406 30.648438 -35.90625 30.734375 -38.03125 C 30.578125 -38.1875 30.398438 -38.363281 30.203125 -38.5625 C 30.003906 -38.757812 29.785156 -38.894531 29.546875 -38.96875 C 29.078125 -38.894531 28.351562 -38.347656 27.375 -37.328125 C 26.394531 -36.304688 25.472656 -35.207031 24.609375 -34.03125 Z M 24.609375 -34.03125 "/></g></g></g><g fill="#27b4a7" fill-opacity="1"><g transform="translate(87.66376, 272.421833)"><g><path d="M 63.109375 -19.078125 C 63.109375 -18.921875 63.144531 -18.765625 63.21875 -18.609375 C 63.144531 -18.210938 63.144531 -17.953125 63.21875 -17.828125 C 63.300781 -17.710938 63.300781 -17.578125 63.21875 -17.421875 L 63.21875 -17.3125 C 63.300781 -16.832031 63.28125 -16.378906 63.15625 -15.953125 C 63.039062 -15.523438 63.101562 -15.226562 63.34375 -15.0625 C 63.34375 -13.726562 63.109375 -12.160156 62.640625 -10.359375 L 61.578125 -7.1875 C 60.554688 -2.945312 58.632812 0.78125 55.8125 4 C 55.488281 4.46875 54.992188 5.09375 54.328125 5.875 C 53.660156 6.664062 52.9375 7.414062 52.15625 8.125 C 51.132812 9.457031 49.703125 10.847656 47.859375 12.296875 C 46.015625 13.753906 44.304688 15.03125 42.734375 16.125 C 41.085938 17.382812 39.789062 18.171875 38.84375 18.484375 C 37.90625 18.796875 36.890625 19.265625 35.796875 19.890625 C 35.242188 20.210938 34.671875 20.488281 34.078125 20.71875 C 33.492188 20.957031 32.925781 21.234375 32.375 21.546875 C 30.175781 22.328125 28.332031 22.914062 26.84375 23.3125 C 25.351562 23.707031 23.84375 23.984375 22.3125 24.140625 C 20.78125 24.296875 18.835938 24.375 16.484375 24.375 C 16.171875 24.375 15.796875 24.351562 15.359375 24.3125 C 14.929688 24.269531 14.484375 24.210938 14.015625 24.140625 L 13.65625 24.140625 C 10.988281 24.140625 8.359375 23.722656 5.765625 22.890625 C 3.179688 22.066406 0.867188 20.753906 -1.171875 18.953125 L -2.9375 17.421875 C -5.613281 14.671875 -7.441406 11.707031 -8.421875 8.53125 C -9.398438 5.351562 -9.890625 2.390625 -9.890625 -0.359375 C -9.890625 -6.953125 -7.691406 -12.757812 -3.296875 -17.78125 C 0.390625 -21.382812 4.507812 -23.1875 9.0625 -23.1875 C 11.34375 -23.1875 13.050781 -22.71875 14.1875 -21.78125 C 15.320312 -20.84375 16.125 -19.863281 16.59375 -18.84375 C 17.070312 -17.820312 17.3125 -17.113281 17.3125 -16.71875 C 17.539062 -16.71875 17.890625 -16.640625 18.359375 -16.484375 C 19.304688 -16.171875 19.738281 -15.738281 19.65625 -15.1875 C 19.65625 -15.03125 19.5 -14.796875 19.1875 -14.484375 C 18.875 -14.171875 18.640625 -13.972656 18.484375 -13.890625 C 18.328125 -13.816406 18.015625 -13.78125 17.546875 -13.78125 C 16.835938 -13.78125 15.894531 -13.835938 14.71875 -13.953125 C 13.539062 -14.066406 12.085938 -14.125 10.359375 -14.125 L 9.1875 -14.125 C 7.457031 -14.050781 5.59375 -13.71875 3.59375 -13.125 C 1.59375 -12.539062 -0.207031 -11.675781 -1.8125 -10.53125 C -3.425781 -9.394531 -4.550781 -7.882812 -5.1875 -6 C -5.5 -4.664062 -5.691406 -3.546875 -5.765625 -2.640625 C -5.847656 -1.742188 -5.847656 -0.90625 -5.765625 -0.125 L -5.296875 3.890625 C -4.984375 5.765625 -4.351562 7.332031 -3.40625 8.59375 C -2.46875 9.851562 -1.375 10.875 -0.125 11.65625 C 0.351562 12.125 1.023438 12.476562 1.890625 12.71875 C 3.222656 13.5 4.769531 14.082031 6.53125 14.46875 C 8.300781 14.863281 10.207031 15.144531 12.25 15.3125 L 13.421875 14.953125 C 13.734375 14.867188 13.96875 14.785156 14.125 14.703125 C 14.28125 14.628906 14.398438 14.632812 14.484375 14.71875 L 15.890625 14.71875 C 16.359375 14.632812 16.828125 14.550781 17.296875 14.46875 C 17.773438 14.394531 18.25 14.320312 18.71875 14.25 L 21.90625 13.1875 C 22.6875 12.875 23.46875 12.441406 24.25 11.890625 C 26.84375 10.554688 29.394531 8.910156 31.90625 6.953125 C 33.476562 5.773438 34.734375 4.359375 35.671875 2.703125 C 36.617188 1.054688 37.484375 -0.472656 38.265625 -1.890625 C 42.191406 -7.617188 44.585938 -13.148438 45.453125 -18.484375 C 45.609375 -19.347656 45.703125 -20.25 45.734375 -21.1875 C 45.773438 -22.132812 45.71875 -23.039062 45.5625 -23.90625 L 45.453125 -25.078125 C 45.285156 -26.171875 44.945312 -27.226562 44.4375 -28.25 C 43.925781 -29.269531 43.320312 -30.253906 42.625 -31.203125 C 41.132812 -33.867188 38.9375 -36.335938 36.03125 -38.609375 L 33.4375 -40.96875 C 32.65625 -41.832031 31.832031 -42.597656 30.96875 -43.265625 C 30.101562 -43.929688 29.160156 -44.617188 28.140625 -45.328125 C 27.117188 -45.953125 26.253906 -46.5 25.546875 -46.96875 C 24.835938 -47.445312 23.9375 -47.878906 22.84375 -48.265625 C 21.738281 -48.742188 20.441406 -49.253906 18.953125 -49.796875 C 17.460938 -50.347656 16.164062 -50.898438 15.0625 -51.453125 L 13.1875 -51.921875 C 12.632812 -52.472656 11.804688 -53.375 10.703125 -54.625 C 9.609375 -55.882812 8.90625 -56.867188 8.59375 -57.578125 C 8.675781 -57.734375 8.695312 -57.847656 8.65625 -57.921875 C 8.613281 -58.003906 8.632812 -58.082031 8.71875 -58.15625 C 8.632812 -58.550781 8.53125 -59.296875 8.40625 -60.390625 C 8.289062 -61.492188 8.273438 -62.082031 8.359375 -62.15625 C 8.117188 -61.925781 8 -61.8125 8 -61.8125 C 7.53125 -62.039062 6.882812 -62.878906 6.0625 -64.328125 C 5.238281 -65.785156 4.628906 -67.144531 4.234375 -68.40625 C 4.234375 -68.476562 4.132812 -68.789062 3.9375 -69.34375 C 3.75 -69.894531 3.570312 -70.441406 3.40625 -70.984375 C 3.25 -71.535156 3.171875 -71.8125 3.171875 -71.8125 L 3.171875 -72.046875 C 3.253906 -72.441406 3.394531 -72.617188 3.59375 -72.578125 C 3.789062 -72.546875 3.925781 -72.609375 4 -72.765625 L 4 -73.34375 C 4.082031 -73.65625 4.082031 -73.851562 4 -73.9375 C 4 -74.09375 4 -74.304688 4 -74.578125 C 4 -74.859375 4.039062 -75.15625 4.125 -75.46875 C 4.039062 -75.78125 4.019531 -76.09375 4.0625 -76.40625 C 4.101562 -76.71875 4.160156 -77.03125 4.234375 -77.34375 C 4.316406 -77.664062 4.4375 -78.082031 4.59375 -78.59375 C 4.75 -79.101562 4.945312 -79.4375 5.1875 -79.59375 C 5.8125 -81.394531 7.046875 -83.117188 8.890625 -84.765625 C 10.734375 -86.410156 12.769531 -87.878906 15 -89.171875 C 17.238281 -90.472656 19.144531 -91.476562 20.71875 -92.1875 L 23.3125 -93.125 C 25.582031 -93.988281 28.148438 -94.734375 31.015625 -95.359375 C 33.890625 -95.992188 36.660156 -96.46875 39.328125 -96.78125 C 39.710938 -97.40625 40.101562 -98.050781 40.5 -98.71875 C 40.894531 -99.382812 41.171875 -100.03125 41.328125 -100.65625 L 42.15625 -101.609375 C 42.226562 -102.148438 42.695312 -102.503906 43.5625 -102.671875 C 44.738281 -102.671875 46.109375 -102.429688 47.671875 -101.953125 C 49.242188 -101.484375 50.738281 -100.875 52.15625 -100.125 C 53.570312 -99.382812 54.59375 -98.546875 55.21875 -97.609375 C 55.375 -97.367188 55.6875 -96.953125 56.15625 -96.359375 C 56.625 -95.773438 56.898438 -95.363281 56.984375 -95.125 L 57.21875 -94.65625 C 57.375 -94.65625 57.453125 -94.5 57.453125 -94.1875 C 57.453125 -94.1875 57.566406 -93.96875 57.796875 -93.53125 C 58.035156 -93.101562 58.234375 -92.457031 58.390625 -91.59375 C 58.710938 -91.039062 58.953125 -90.332031 59.109375 -89.46875 C 59.265625 -88.613281 59.265625 -87.753906 59.109375 -86.890625 C 59.023438 -86.578125 58.921875 -86.203125 58.796875 -85.765625 C 58.679688 -85.335938 58.585938 -84.96875 58.515625 -84.65625 C 58.429688 -84.101562 58.347656 -83.828125 58.265625 -83.828125 C 58.191406 -83.828125 58.117188 -83.707031 58.046875 -83.46875 C 58.117188 -83.15625 58.191406 -82.941406 58.265625 -82.828125 C 58.347656 -82.710938 58.429688 -82.535156 58.515625 -82.296875 L 56.859375 -78.640625 C 56.785156 -78.484375 56.609375 -78.25 56.328125 -77.9375 C 56.054688 -77.625 55.882812 -77.3125 55.8125 -77 L 55.578125 -76.171875 C 55.410156 -75.703125 55.210938 -75.46875 54.984375 -75.46875 C 54.898438 -75.382812 54.703125 -75.503906 54.390625 -75.828125 C 53.835938 -75.429688 53.210938 -75.234375 52.515625 -75.234375 C 51.960938 -75.460938 51.132812 -75.695312 50.03125 -75.9375 C 49.488281 -75.625 49.054688 -75.425781 48.734375 -75.34375 C 48.421875 -75.269531 48.109375 -75.234375 47.796875 -75.234375 C 47.566406 -75.234375 47.3125 -75.25 47.03125 -75.28125 C 46.757812 -75.320312 46.425781 -75.382812 46.03125 -75.46875 C 44.695312 -75.707031 43.695312 -76.332031 43.03125 -77.34375 C 42.363281 -78.363281 42.109375 -79.382812 42.265625 -80.40625 C 42.503906 -81.113281 42.738281 -81.46875 42.96875 -81.46875 C 43.125 -81.46875 43.300781 -81.425781 43.5 -81.34375 C 43.695312 -81.269531 43.953125 -81.195312 44.265625 -81.125 C 44.816406 -81.039062 45.070312 -80.6875 45.03125 -80.0625 C 44.988281 -79.4375 44.96875 -78.847656 44.96875 -78.296875 C 44.96875 -77.742188 45.285156 -77.390625 45.921875 -77.234375 C 46.078125 -77.234375 46.234375 -77.210938 46.390625 -77.171875 C 46.546875 -77.128906 46.660156 -77.109375 46.734375 -77.109375 C 47.753906 -77.109375 48.695312 -77.5 49.5625 -78.28125 C 50.425781 -79.070312 51.015625 -80.210938 51.328125 -81.703125 C 51.253906 -82.804688 50.976562 -83.847656 50.5 -84.828125 C 50.03125 -85.804688 49.5625 -86.414062 49.09375 -86.65625 C 48.695312 -86.65625 48.5 -86.65625 48.5 -86.65625 C 48.1875 -86.96875 47.675781 -87.160156 46.96875 -87.234375 C 46.65625 -87.316406 46.148438 -87.359375 45.453125 -87.359375 L 44.5 -87.359375 L 43.203125 -87.484375 C 38.648438 -87.398438 34.84375 -86.648438 31.78125 -85.234375 C 28.726562 -83.828125 26.296875 -82.257812 24.484375 -80.53125 C 23.703125 -80.132812 22.546875 -79.425781 21.015625 -78.40625 C 19.484375 -77.382812 18.066406 -76.285156 16.765625 -75.109375 C 15.472656 -73.929688 14.710938 -72.875 14.484375 -71.9375 C 14.484375 -71.695312 14.71875 -71.421875 15.1875 -71.109375 C 15.1875 -70.878906 15.226562 -70.679688 15.3125 -70.515625 C 15.226562 -69.890625 15.710938 -69.144531 16.765625 -68.28125 C 17.828125 -67.414062 19.1875 -66.554688 20.84375 -65.703125 C 21.707031 -64.679688 22.804688 -63.832031 24.140625 -63.15625 C 25.472656 -62.488281 26.570312 -61.960938 27.4375 -61.578125 L 29.90625 -60.390625 C 30.53125 -59.765625 31.273438 -59.15625 32.140625 -58.5625 C 33.003906 -57.976562 33.632812 -57.488281 34.03125 -57.09375 C 33.945312 -57.019531 33.90625 -56.941406 33.90625 -56.859375 C 33.90625 -56.859375 34.003906 -56.679688 34.203125 -56.328125 C 34.398438 -55.984375 34.890625 -55.535156 35.671875 -54.984375 L 37.796875 -53.796875 C 39.046875 -53.097656 40.648438 -52.238281 42.609375 -51.21875 C 44.578125 -50.195312 46.503906 -49.113281 48.390625 -47.96875 C 50.273438 -46.832031 51.726562 -45.71875 52.75 -44.625 L 55.09375 -41.671875 C 55.488281 -41.128906 55.863281 -40.617188 56.21875 -40.140625 C 56.570312 -39.671875 56.785156 -39.242188 56.859375 -38.859375 C 57.253906 -37.910156 57.921875 -36.691406 58.859375 -35.203125 C 59.804688 -33.710938 60.554688 -32.414062 61.109375 -31.3125 L 62.515625 -28.484375 L 63.109375 -21.546875 L 63.453125 -19.3125 C 63.453125 -19.226562 63.394531 -19.1875 63.28125 -19.1875 C 63.164062 -19.1875 63.109375 -19.148438 63.109375 -19.078125 Z M 63.109375 -19.078125 "/></g></g></g><g fill="#27b4a7" fill-opacity="1"><g transform="translate(158.188189, 272.421833)"><g><path d="M 25.671875 -48.5 C 25.984375 -48.5 26.648438 -48.441406 27.671875 -48.328125 C 28.691406 -48.210938 29.804688 -47.898438 31.015625 -47.390625 C 32.234375 -46.878906 33.351562 -46.070312 34.375 -44.96875 C 35.394531 -43.875 36.023438 -42.304688 36.265625 -40.265625 C 36.265625 -38.460938 35.867188 -36.734375 35.078125 -35.078125 C 35.003906 -34.765625 34.726562 -34.132812 34.25 -33.1875 C 33.78125 -32.25 33.210938 -31.269531 32.546875 -30.25 C 31.878906 -29.238281 31.273438 -28.414062 30.734375 -27.78125 L 30.140625 -27.3125 C 28.648438 -25.195312 26.765625 -23.273438 24.484375 -21.546875 C 24.015625 -20.992188 23.25 -20.265625 22.1875 -19.359375 C 21.132812 -18.460938 20.097656 -17.640625 19.078125 -16.890625 C 18.054688 -16.148438 17.3125 -15.660156 16.84375 -15.421875 L 13.890625 -14.015625 C 13.335938 -13.378906 12.984375 -12.414062 12.828125 -11.125 C 12.671875 -9.832031 12.59375 -8.476562 12.59375 -7.0625 C 12.59375 -5.96875 12.628906 -4.890625 12.703125 -3.828125 C 12.785156 -2.765625 12.867188 -1.878906 12.953125 -1.171875 C 13.023438 -0.546875 13.515625 -0.0390625 14.421875 0.34375 C 15.328125 0.738281 16.289062 0.9375 17.3125 0.9375 C 18.488281 0.9375 20.132812 0.410156 22.25 -0.640625 C 24.375 -1.703125 26.691406 -3.234375 29.203125 -5.234375 C 31.710938 -7.234375 34.066406 -9.648438 36.265625 -12.484375 C 36.421875 -12.867188 36.632812 -13.238281 36.90625 -13.59375 C 37.1875 -13.945312 37.40625 -14.28125 37.5625 -14.59375 C 37.945312 -15.226562 38.550781 -15.972656 39.375 -16.828125 C 40.207031 -17.691406 40.894531 -18.632812 41.4375 -19.65625 C 42.539062 -21.46875 43.617188 -23.21875 44.671875 -24.90625 C 45.734375 -26.59375 46.539062 -27.515625 47.09375 -27.671875 C 47.488281 -27.898438 47.84375 -28.015625 48.15625 -28.015625 L 48.734375 -28.25 L 48.734375 -28.140625 C 48.898438 -28.210938 49 -28.269531 49.03125 -28.3125 C 49.070312 -28.351562 49.09375 -28.375 49.09375 -28.375 C 49.25 -28.375 49.367188 -28.097656 49.453125 -27.546875 C 49.523438 -26.921875 49.304688 -26.210938 48.796875 -25.421875 C 48.285156 -24.640625 47.597656 -23.703125 46.734375 -22.609375 C 46.421875 -21.972656 45.953125 -21.164062 45.328125 -20.1875 C 44.703125 -19.207031 44.035156 -18.285156 43.328125 -17.421875 L 42.734375 -16.484375 C 42.734375 -16.398438 42.65625 -16.203125 42.5 -15.890625 L 42.15625 -14.828125 L 39.796875 -11.78125 C 39.085938 -10.832031 38.257812 -9.867188 37.3125 -8.890625 C 36.375 -7.910156 35.628906 -6.945312 35.078125 -6 L 34.84375 -5.765625 C 34.0625 -4.742188 33.097656 -3.644531 31.953125 -2.46875 C 30.816406 -1.289062 29.703125 -0.347656 28.609375 0.359375 L 24.953125 2.828125 C 23.460938 3.847656 22.050781 4.707031 20.71875 5.40625 C 19.382812 6.113281 17.816406 6.46875 16.015625 6.46875 C 14.441406 6.46875 12.691406 6.289062 10.765625 5.9375 C 8.847656 5.59375 7.222656 4.988281 5.890625 4.125 L 5.765625 4 C 4.742188 3.613281 3.625 2.789062 2.40625 1.53125 C 1.195312 0.269531 0.394531 -1.648438 0 -4.234375 L 0.125 -4.234375 C -0.195312 -4.703125 -0.453125 -5.191406 -0.640625 -5.703125 C -0.835938 -6.210938 -0.9375 -6.707031 -0.9375 -7.1875 C -0.9375 -7.1875 -0.9375 -7.554688 -0.9375 -8.296875 C -0.9375 -9.046875 -0.898438 -9.851562 -0.828125 -10.71875 C -0.828125 -11.582031 -0.804688 -12.363281 -0.765625 -13.0625 C -0.722656 -13.769531 -0.742188 -14.164062 -0.828125 -14.25 C -0.828125 -15.5 -0.75 -16.75 -0.59375 -18 C -0.4375 -19.257812 -0.28125 -20.519531 -0.125 -21.78125 C -0.125 -22.019531 -0.0820312 -22.175781 0 -22.25 C 0 -22.40625 0.0195312 -22.5625 0.0625 -22.71875 C 0.101562 -22.875 0.125 -22.992188 0.125 -23.078125 C 0.4375 -24.410156 0.847656 -25.6875 1.359375 -26.90625 C 1.867188 -28.125 2.394531 -29.320312 2.9375 -30.5 L 3.765625 -32.734375 L 4.234375 -33.4375 C 4.867188 -34.375 5.578125 -35.46875 6.359375 -36.71875 C 7.140625 -37.976562 7.804688 -38.804688 8.359375 -39.203125 L 9.890625 -40.859375 C 10.515625 -41.640625 11.179688 -42.398438 11.890625 -43.140625 C 12.597656 -43.890625 13.304688 -44.539062 14.015625 -45.09375 C 14.398438 -45.488281 14.710938 -45.722656 14.953125 -45.796875 L 14.953125 -45.6875 L 15.546875 -46.15625 C 16.085938 -46.625 16.613281 -46.9375 17.125 -47.09375 C 17.632812 -47.25 18.085938 -47.328125 18.484375 -47.328125 C 18.640625 -47.328125 18.816406 -47.304688 19.015625 -47.265625 C 19.210938 -47.234375 19.390625 -47.21875 19.546875 -47.21875 L 20.375 -47.21875 C 20.6875 -47.21875 21.15625 -47.410156 21.78125 -47.796875 C 22.09375 -47.953125 22.40625 -48.085938 22.71875 -48.203125 C 23.03125 -48.328125 23.304688 -48.390625 23.546875 -48.390625 C 23.785156 -48.390625 23.941406 -48.347656 24.015625 -48.265625 C 24.328125 -48.421875 24.617188 -48.5 24.890625 -48.5 C 25.171875 -48.5 25.429688 -48.5 25.671875 -48.5 Z M 24.609375 -34.03125 L 24.015625 -33.546875 C 23.941406 -33.472656 23.84375 -33.316406 23.71875 -33.078125 C 23.601562 -32.847656 23.503906 -32.613281 23.421875 -32.375 C 23.421875 -32.300781 23.378906 -32.222656 23.296875 -32.140625 C 23.222656 -32.066406 23.1875 -31.988281 23.1875 -31.90625 C 21.625 -29.46875 20.269531 -27.109375 19.125 -24.828125 C 17.988281 -22.554688 17.226562 -20.832031 16.84375 -19.65625 C 17.3125 -19.894531 17.78125 -20.207031 18.25 -20.59375 C 18.71875 -20.988281 19.148438 -21.34375 19.546875 -21.65625 L 22.140625 -23.78125 C 24.492188 -26.0625 26.492188 -28.472656 28.140625 -31.015625 C 29.785156 -33.566406 30.648438 -35.90625 30.734375 -38.03125 C 30.578125 -38.1875 30.398438 -38.363281 30.203125 -38.5625 C 30.003906 -38.757812 29.785156 -38.894531 29.546875 -38.96875 C 29.078125 -38.894531 28.351562 -38.347656 27.375 -37.328125 C 26.394531 -36.304688 25.472656 -35.207031 24.609375 -34.03125 Z M 24.609375 -34.03125 "/></g></g></g><g fill="#27b4a7" fill-opacity="1"><g transform="translate(199.749335, 272.421833)"><g><path d="M 3.296875 -33.4375 L 5.765625 -40.625 C 6.472656 -42.34375 7.0625 -43.96875 7.53125 -45.5 C 8 -47.03125 8.15625 -48.382812 8 -49.5625 C 8 -50.582031 8.394531 -51.09375 9.1875 -51.09375 C 10.363281 -51.09375 11.851562 -50.5625 13.65625 -49.5 C 15.457031 -48.445312 16.789062 -47.367188 17.65625 -46.265625 L 17.78125 -45.6875 C 17.851562 -45.363281 17.910156 -45.082031 17.953125 -44.84375 C 17.992188 -44.613281 18.015625 -44.421875 18.015625 -44.265625 C 18.085938 -43.867188 18.203125 -43.4375 18.359375 -42.96875 C 18.523438 -42.5 18.6875 -42.03125 18.84375 -41.5625 C 19.070312 -41.007812 19.300781 -40.378906 19.53125 -39.671875 C 19.769531 -38.960938 19.890625 -38.140625 19.890625 -37.203125 L 19.421875 -35.5625 L 20.484375 -36.734375 C 21.742188 -38.066406 23.3125 -39.65625 25.1875 -41.5 C 27.070312 -43.34375 28.957031 -44.96875 30.84375 -46.375 C 32.726562 -47.789062 34.300781 -48.5 35.5625 -48.5 C 37.207031 -48.5 38.675781 -47.535156 39.96875 -45.609375 C 41.257812 -43.691406 41.945312 -41.789062 42.03125 -39.90625 C 42.1875 -39.039062 42.144531 -38.140625 41.90625 -37.203125 C 42.226562 -36.890625 42.523438 -36.535156 42.796875 -36.140625 C 43.066406 -35.753906 43.359375 -35.242188 43.671875 -34.609375 C 43.515625 -33.828125 43.316406 -33.117188 43.078125 -32.484375 C 42.847656 -31.859375 42.617188 -31.234375 42.390625 -30.609375 L 40.859375 -26.140625 L 40.390625 -24.25 L 40.390625 -24.140625 L 36.734375 -14.359375 C 36.734375 -14.285156 36.75 -14.1875 36.78125 -14.0625 C 36.820312 -13.945312 36.84375 -13.851562 36.84375 -13.78125 C 35.351562 -10.476562 34.53125 -8.039062 34.375 -6.46875 C 34.457031 -6.394531 34.5 -6.296875 34.5 -6.171875 C 34.5 -6.054688 34.535156 -5.960938 34.609375 -5.890625 C 35.941406 -6.117188 37.488281 -6.878906 39.25 -8.171875 C 41.019531 -9.472656 42.789062 -11.125 44.5625 -13.125 C 46.332031 -15.125 47.84375 -17.265625 49.09375 -19.546875 C 49.488281 -20.171875 49.878906 -20.894531 50.265625 -21.71875 C 50.660156 -22.539062 51.054688 -23.382812 51.453125 -24.25 C 52.160156 -25.738281 52.941406 -27.25 53.796875 -28.78125 C 54.660156 -30.3125 55.484375 -31.625 56.265625 -32.71875 C 57.054688 -33.820312 57.726562 -34.375 58.28125 -34.375 C 58.675781 -34.375 58.96875 -34.234375 59.15625 -33.953125 C 59.351562 -33.679688 59.453125 -33.390625 59.453125 -33.078125 C 59.609375 -32.535156 59.492188 -32.023438 59.109375 -31.546875 L 56.859375 -26.71875 C 56.546875 -26.019531 56.210938 -25.273438 55.859375 -24.484375 C 55.503906 -23.703125 55.015625 -22.84375 54.390625 -21.90625 L 50.03125 -15.0625 C 49.488281 -13.570312 48.410156 -11.941406 46.796875 -10.171875 C 45.191406 -8.410156 43.722656 -7.175781 42.390625 -6.46875 L 42.5 -6.46875 C 42.1875 -6.15625 41.578125 -5.644531 40.671875 -4.9375 C 39.773438 -4.238281 38.851562 -3.59375 37.90625 -3 C 36.96875 -2.414062 36.34375 -2.125 36.03125 -2.125 C 35.789062 -2.125 35.4375 -2.203125 34.96875 -2.359375 L 34.375 -2.46875 C 33.988281 -2.394531 33.597656 -2.335938 33.203125 -2.296875 C 32.804688 -2.253906 32.414062 -2.234375 32.03125 -2.234375 C 29.75 -2.234375 27.898438 -2.859375 26.484375 -4.109375 C 25.078125 -5.367188 24.019531 -6.960938 23.3125 -8.890625 C 22.601562 -10.816406 22.171875 -12.796875 22.015625 -14.828125 C 21.859375 -16.640625 22.210938 -19.15625 23.078125 -22.375 C 23.941406 -25.59375 25.117188 -28.925781 26.609375 -32.375 C 26.765625 -32.53125 27 -32.898438 27.3125 -33.484375 C 27.625 -34.078125 27.9375 -34.648438 28.25 -35.203125 C 28.726562 -36.066406 29.160156 -36.867188 29.546875 -37.609375 C 29.941406 -38.359375 30.097656 -39.046875 30.015625 -39.671875 L 30.5 -40.5 C 30.726562 -40.894531 30.863281 -41.128906 30.90625 -41.203125 C 30.945312 -41.285156 30.96875 -41.363281 30.96875 -41.4375 C 30.488281 -41.125 29.9375 -40.65625 29.3125 -40.03125 C 28.925781 -40.03125 28.257812 -39.710938 27.3125 -39.078125 C 26.375 -38.453125 25.472656 -37.671875 24.609375 -36.734375 C 23.742188 -35.796875 23.191406 -34.816406 22.953125 -33.796875 C 21.460938 -31.828125 20.148438 -29.644531 19.015625 -27.25 C 17.878906 -24.863281 16.835938 -22.570312 15.890625 -20.375 C 15.660156 -19.820312 15.425781 -19.25 15.1875 -18.65625 C 14.945312 -18.070312 14.710938 -17.546875 14.484375 -17.078125 C 14.554688 -16.679688 14.535156 -16.265625 14.421875 -15.828125 C 14.304688 -15.398438 14.171875 -14.953125 14.015625 -14.484375 C 13.929688 -14.171875 13.8125 -13.796875 13.65625 -13.359375 C 13.5 -12.929688 13.421875 -12.5625 13.421875 -12.25 C 13.578125 -11.851562 13.535156 -11.535156 13.296875 -11.296875 L 13.296875 -11.421875 C 12.515625 -9.929688 11.96875 -8.554688 11.65625 -7.296875 C 11.34375 -6.046875 11.109375 -4.988281 10.953125 -4.125 C 10.867188 -3.332031 10.75 -2.703125 10.59375 -2.234375 C 10.4375 -1.765625 10.125 -1.53125 9.65625 -1.53125 L 9.421875 -1.53125 L 7.65625 -2.125 C 7.414062 -1.101562 6.941406 -0.59375 6.234375 -0.59375 C 5.367188 -0.59375 4.289062 -1.316406 3 -2.765625 C 1.707031 -4.210938 0.828125 -5.84375 0.359375 -7.65625 L -0.125 -8 C -0.125 -8.394531 -0.101562 -8.769531 -0.0625 -9.125 C -0.0195312 -9.476562 0.0390625 -9.8125 0.125 -10.125 C 0.195312 -10.59375 0.269531 -11.117188 0.34375 -11.703125 C 0.425781 -12.296875 0.429688 -12.867188 0.359375 -13.421875 C 0.359375 -14.046875 0.238281 -14.632812 0 -15.1875 L 0.125 -15.1875 C -0.0390625 -15.34375 -0.125 -15.5 -0.125 -15.65625 C 0.0390625 -16.757812 0.257812 -17.914062 0.53125 -19.125 C 0.800781 -20.34375 1.09375 -21.539062 1.40625 -22.71875 C 1.40625 -22.875 1.382812 -22.988281 1.34375 -23.0625 C 1.3125 -23.144531 1.296875 -23.226562 1.296875 -23.3125 C 1.296875 -23.382812 1.273438 -23.476562 1.234375 -23.59375 C 1.191406 -23.71875 1.171875 -23.820312 1.171875 -23.90625 L 1.171875 -25.546875 L 3.53125 -32.5 L 3.421875 -32.734375 C 3.335938 -32.890625 3.296875 -33.125 3.296875 -33.4375 Z M 3.296875 -33.4375 "/></g></g></g></g></g></svg>