<svg xmlns="http://www.w3.org/2000/svg" version="1.1" viewBox="30.75 23.53 447.25 389.71">
<path d="M0 0 C3.21078268 1.77617765 4.56623573 3.07159226 6.11328125 6.3828125 C7.41083946 11.67593544 7.28827668 16.82109125 7.25 22.25 C7.25773437 23.33152344 7.26546875 24.41304687 7.2734375 25.52734375 C7.25245468 34.22472246 6.29398626 41.92902068 3 50 C2.65630561 52.61441429 2.65630561 52.61441429 2.5625 55.375 C1.78013296 66.06734954 -0.51572598 75.8999122 -4.125 85.9375 C-7.12694815 94.31435623 -7.97586117 102.14104901 -8 111 C1.50651567 101.7141713 7.50956644 93.37433202 11.0078125 80.59765625 C13.52519132 71.4696803 18.40010176 65.71548314 25 59 C25.54011719 58.44699219 26.08023437 57.89398438 26.63671875 57.32421875 C31.70043469 52.62120586 38.24240791 51.47485903 44.98046875 51.6875 C50.15259989 52.48782977 53.93439505 54.5791934 57.0625 58.75 C58.85242389 64.95506949 57.63119116 69.31421993 54.625 74.8125 C48.54828981 84.26192972 39.74714316 92.41112927 30 98 C29.34 98 28.68 98 28 98 C28 103.94 28 109.88 28 116 C39.13599096 115.64077449 46.36861706 110.33062059 53.91015625 102.41796875 C58.01418195 97.66957266 61.39482559 92.46657188 64.8125 87.21484375 C65.410625 86.31894531 66.00875 85.42304688 66.625 84.5 C67.41777344 83.27796875 67.41777344 83.27796875 68.2265625 82.03125 C70.2924233 79.66506582 72.03439421 78.93117998 75 78 C74.50168912 82.57781594 73.4583976 85.27659247 70.6875 88.9375 C68.61259367 91.75164421 66.66642004 94.45580802 65.0625 97.5625 C62.46625569 102.29616959 58.67404808 106.08891656 55 110 C53.7934375 111.299375 53.7934375 111.299375 52.5625 112.625 C44.68377153 119.92723615 37.86917113 125.63263035 26.75 125.28515625 C21.40730158 124.73115485 17.57582613 123.14605536 13.25 120 C10.04483519 115.72644691 8.58717174 111.06298917 7 106 C5.88625 107.423125 5.88625 107.423125 4.75 108.875 C2.65718382 111.41120944 0.93199051 112.53400474 -2 114 C-2.4021875 114.81082031 -2.804375 115.62164062 -3.21875 116.45703125 C-5 119 -5 119 -7.9609375 120.1015625 C-17.1048951 121.5034965 -17.1048951 121.5034965 -21 119.3125 C-28 107.71875 -28 107.71875 -28 101 C-31.24082059 104.04440722 -33.84101271 107.13222771 -36.4375 110.75 C-38.53690119 113.44280795 -39.64265677 114.82944982 -42.75 116.3125 C-48.43173462 115.76617936 -54.89222076 114.32350078 -58.83203125 109.98046875 C-60 108 -60 108 -60 106 C-60.66 106 -61.32 106 -62 106 C-62.26554687 106.70382813 -62.53109375 107.40765625 -62.8046875 108.1328125 C-66.91373393 117.98915263 -72.23663821 126.4712895 -81.875 131.5 C-89.05943906 132.64951025 -95.26045876 131.75064217 -101.25 127.5 C-107.32456798 122.29322744 -109.78171627 115.82094644 -111 108 C-111.08944177 104.56208211 -110.61500174 101.3777788 -110 98 C-109.71769531 96.24816406 -109.71769531 96.24816406 -109.4296875 94.4609375 C-108.11126983 87.02021247 -106.22497665 80.36563065 -103.0859375 73.48828125 C-101.83487849 70.80915868 -101.83487849 70.80915868 -101 67 C-103.97 66.67 -106.94 66.34 -110 66 C-110.90878906 67.77890625 -110.90878906 67.77890625 -111.8359375 69.59375 C-132.88895836 110.43941131 -132.88895836 110.43941131 -147 116 C-151.19951725 116.88118415 -154.32532087 116.31139037 -158.25 114.5 C-162.39153914 110.73496442 -164.78138447 106.62338637 -165.25 101 C-165.1675 100.34 -165.085 99.68 -165 99 C-167.68585579 101.60911706 -170.07288251 104.09398008 -172.375 107.0625 C-176.78961245 112.00266155 -180.58397494 114.19735497 -187.125 114.625 C-191.04257027 114.44665841 -191.8072733 114.16402272 -194.9375 111.5 C-196.03515625 109.82421875 -196.03515625 109.82421875 -197 108 C-197.49306641 107.11248047 -197.49306641 107.11248047 -197.99609375 106.20703125 C-202.93267117 95.56596436 -197.8926595 80.29569647 -194.19824219 69.70068359 C-193.48428968 67.79331459 -192.74462585 65.89560466 -192 64 C-193.44379943 65.38931643 -194.87977512 66.78676578 -196.3125 68.1875 C-197.11300781 68.96480469 -197.91351563 69.74210937 -198.73828125 70.54296875 C-202.86145536 75.0222028 -204.33981469 77.80408252 -204.16137695 84.02807617 C-204.12874756 84.76131104 -204.09611816 85.4945459 -204.0625 86.25 C-203.87073668 95.0402437 -204.55336442 102.11732783 -209 110 C-218.70609982 109.012939 -218.70609982 109.012939 -222 107 C-225.68092796 102.32422664 -226.65918235 98.50399241 -226.4765625 92.59375 C-225.68525223 86.62649225 -224.20086089 80.81999885 -222.69165039 74.99755859 C-222.4621167 74.10891113 -222.23258301 73.22026367 -221.99609375 72.3046875 C-221.67402954 71.0978833 -221.67402954 71.0978833 -221.34545898 69.86669922 C-221.17445679 68.94268311 -221.17445679 68.94268311 -221 68 C-221.33 67.67 -221.66 67.34 -222 67 C-230.5786355 76.91556571 -235.03900502 88.69635352 -238.0859375 101.34375 C-239.46594323 106.86377293 -241.04311649 110.7361794 -246 113.9375 C-249 115 -249 115 -253 115 C-256.948143 110.47124773 -258.01400312 105.83813939 -259 100 C-259.556875 100.7734375 -260.11375 101.546875 -260.6875 102.34375 C-271.72651906 117.41051926 -271.72651906 117.41051926 -279.4375 122.3125 C-282.27846354 123.80474002 -282.27846354 123.80474002 -283 127 C-283.02588279 128.70826429 -283.04584449 130.41662083 -283.0625 132.125 C-284.3532017 148.29788348 -295.6653392 163.15499655 -307 174 C-313.54860086 179.57273093 -319.99426532 183.68325028 -328.859375 183.3515625 C-333.54440278 182.58212363 -336.28188928 179.8151527 -339.3125 176.375 C-341.96130644 172.64705019 -342.51186339 170.60677048 -342 166 C-339.698064 161.29484282 -336.50915931 156.87217579 -333 153 C-332.34 153 -331.68 153 -331 153 C-331 152.34 -331 151.68 -331 151 C-329.2434082 149.56713867 -329.2434082 149.56713867 -326.80078125 147.91796875 C-325.48110352 147.01401367 -325.48110352 147.01401367 -324.13476562 146.09179688 C-323.20341797 145.46337891 -322.27207031 144.83496094 -321.3125 144.1875 C-309.45596918 136.16863075 -300.47307326 126.94614651 -294 114 C-294 113.01 -294 112.02 -294 111 C-294.52787109 111.68835938 -294.52787109 111.68835938 -295.06640625 112.390625 C-299.46532572 117.85768941 -303.34099121 121.48645491 -310.5625 122.5 C-314.66810289 121.9028214 -316.82952087 120.64206594 -320 118 C-320.33 117.01 -320.66 116.02 -321 115 C-321.66 114.67 -322.32 114.34 -323 114 C-325.19868926 105.37720747 -321.40477062 98.25053485 -317.09375 90.94921875 C-315.47437634 88.26189293 -313.83219465 85.59359986 -312.15356445 82.94287109 C-311.6349585 82.1173877 -311.11635254 81.2919043 -310.58203125 80.44140625 C-310.10999268 79.70607666 -309.6379541 78.97074707 -309.15161133 78.21313477 C-307.89961865 75.8070899 -307.40686216 73.67027129 -307 71 C-307.99 71.495 -307.99 71.495 -309 72 C-310.45826205 72.0253366 -311.91661645 72.04554205 -313.375 72.0625 C-316.82346431 72.38222341 -316.82346431 72.38222341 -319.33984375 74.5625 C-320.36681027 76.67417413 -321.1997606 78.79270461 -322 81 C-322.64251528 82.4898163 -323.3085232 83.96976763 -324 85.4375 C-324.28875 86.09621094 -324.5775 86.75492187 -324.875 87.43359375 C-326 89 -326 89 -328.125 89.72265625 C-328.74375 89.81417969 -329.3625 89.90570313 -330 90 C-331.21484375 88.4375 -331.21484375 88.4375 -332 86 C-330.96276831 83.49409552 -329.90552319 81.3301818 -328.5625 79 C-325.85315106 74.63387769 -325.85315106 74.63387769 -325.2109375 69.69921875 C-325.81535015 68.39763704 -326.43551167 67.10335833 -327.0625 65.8125 C-329.43301034 58.70096898 -328.05621082 51.69765351 -325 45 C-322.77564347 41.62758849 -320.90668693 39.22781589 -317 38 C-313.15477057 37.58801113 -310.88115196 37.49333762 -307.5 39.4375 C-305.57235963 42.7305523 -305.66168822 44.62608863 -306.23828125 48.33984375 C-307.73325758 53.5607611 -310.38111088 58.26677839 -313 63 C-312.24976563 62.7834375 -311.49953125 62.566875 -310.7265625 62.34375 C-294.70643927 57.98563083 -294.70643927 57.98563083 -288.125 61.5625 C-283.63324689 66.71480504 -281.19568783 70.8430688 -281.55859375 77.73828125 C-282.70243707 83.59921296 -286.23542571 87.51263653 -290.75 91.1875 C-294.52886315 94.29568705 -297.23071812 97.75829683 -300 101.75 C-300.39799805 102.3174292 -300.79599609 102.8848584 -301.20605469 103.46948242 C-303.0546782 106.20937741 -304 107.62506878 -304 111 C-298.31487345 104.99474011 -293.09348078 99.23181604 -289 92 C-285.04196695 93.31934435 -282.51078172 94.62343148 -280 98 C-278.11756582 103.31332229 -277.88995092 107.45774058 -279 113 C-263.30897371 98.51083955 -255.21455673 83.83786052 -251.51806641 62.65942383 C-250.53536898 57.35431439 -249.03392631 53.49066976 -246 49 C-242.73201451 46.821343 -241.79094962 46.27791436 -238 47 C-233.35473956 51.75083454 -231.97102629 55.2089665 -231.4375 61.6875 C-231.35371094 62.68136719 -231.26992187 63.67523438 -231.18359375 64.69921875 C-231.12300781 65.45847656 -231.06242187 66.21773438 -231 67 C-230.443125 66.34773438 -229.88625 65.69546875 -229.3125 65.0234375 C-217.34902155 51.3220213 -217.34902155 51.3220213 -210.75 50.6875 C-206.93627301 52.50768788 -205.5513517 55.24149793 -204 59 C-203.31675636 60.9943978 -202.64705285 62.99356858 -202 65 C-201.27554688 64.25234375 -200.55109375 63.5046875 -199.8046875 62.734375 C-198.82840035 61.7393131 -197.85182223 60.74453663 -196.875 59.75 C-196.400625 59.25886719 -195.92625 58.76773438 -195.4375 58.26171875 C-187.34093079 50.05573645 -187.34093079 50.05573645 -182.375 49.9375 C-179.01535884 51.44049736 -177.88764244 52.81053519 -176 56 C-172.6716666 66.41446258 -175.15277923 75.32215031 -177.984375 85.55859375 C-179.75604923 92.0129542 -181.45331519 98.30311112 -182 105 C-170.12933188 95.90757336 -165.0920972 85.97107587 -161.52636719 71.92236328 C-160.58996465 68.50249613 -159.22390101 65.28069675 -157.83984375 62.0234375 C-157.08318598 60.20042017 -156.4693759 58.31969034 -155.875 56.4375 C-155 54 -155 54 -153 53 C-149.6875 52.5625 -149.6875 52.5625 -146 53 C-142.22905562 56.11846546 -140.14214278 59.68408023 -139.62109375 64.5078125 C-138.9168873 77.96366435 -142.35479477 89.04956863 -147.15209961 101.53076172 C-148.0025752 104.00749946 -148.54622714 106.42372261 -149 109 C-136.75575757 100.69605899 -130.00554767 89.70711021 -123 77 C-122.65565918 76.38527832 -122.31131836 75.77055664 -121.95654297 75.13720703 C-118.24683714 69.11619073 -118.24683714 69.11619073 -117.19921875 62.3828125 C-118.00979535 59.97085285 -118.8771441 58.55921779 -120.5 56.625 C-123.14646084 53.03227555 -124 50.57526884 -124 46 C-122.58813737 37.03343384 -120.08406659 29.47580136 -113.0625 23.5 C-109.61743208 21.81261979 -107.78117703 21.43684597 -104 22 C-99.36764706 24.26470588 -99.36764706 24.26470588 -98 27 C-97.17033122 37.28789284 -100.9009565 46.09200866 -105.265625 55.2578125 C-106.12947548 56.99205306 -106.12947548 56.99205306 -106 59 C-105.01 59.33 -104.02 59.66 -103 60 C-99.90879738 58.36295619 -97.04060656 56.46736369 -94.10546875 54.56640625 C-90.66785922 52.83246735 -88.79218795 52.4694058 -85 53 C-82.953125 54.20703125 -82.953125 54.20703125 -81.25 55.8125 C-80.67765625 56.33457031 -80.1053125 56.85664062 -79.515625 57.39453125 C-77.33829542 59.70092934 -76.08307287 61.44507325 -75.609375 64.609375 C-76.1563041 69.35671963 -78.1085987 73.01981373 -80.25 77.25 C-81.08016021 78.94431683 -81.90830848 80.63962102 -82.734375 82.3359375 C-83.12947266 83.14256836 -83.52457031 83.94919922 -83.93164062 84.78027344 C-90.40074146 98.22110178 -90.75989229 108.43663979 -88 123 C-83.7610688 123.25181769 -81.40954128 123.2249973 -78.1875 120.375 C-71.12480529 113.74777009 -63.63478717 103.09138254 -62.1875 93.4375 C-59.29282528 78.15631018 -49.71098154 63.83691745 -37 55 C-32.85748415 52.61040503 -28.76652755 51.80063953 -24 52 C-20.9375 52.9375 -20.9375 52.9375 -19 54 C-19.03996094 52.906875 -19.07992188 51.81375 -19.12109375 50.6875 C-19.119917 45.33093452 -18.07572889 40.24266212 -17.0625 35 C-15.5195973 26.70996458 -14.52401001 18.70572811 -14.37109375 10.27734375 C-13.95300172 6.58493096 -12.92221964 4.16296778 -11 1 C-7.53193957 -0.73403022 -3.7919279 -0.46579045 0 0 Z M-107 36 C-111.08867367 40.91981389 -112.55222421 44.94523617 -112.17578125 51.3125 C-112.11777344 51.869375 -112.05976563 52.42625 -112 53 C-107.67488672 49.08680227 -106.12016048 44.24299561 -105.8125 38.5 C-105.9053125 37.2625 -105.9053125 37.2625 -106 36 C-106.33 36 -106.66 36 -107 36 Z M-317 50 C-319.41685712 54.22949995 -320.34833144 57.12335991 -320 62 C-316.66226291 58.35883227 -316.02135098 54.71392758 -315 50 C-315.66 50 -316.32 50 -317 50 Z M-28 70 C-29.92283285 72.24212244 -31.65631686 74.59908219 -33.375 77 C-33.8496167 77.66281982 -34.3242334 78.32563965 -34.81323242 79.00854492 C-36.22146956 80.99716381 -37.61177831 82.99737761 -39 85 C-39.40202637 85.56412598 -39.80405273 86.12825195 -40.21826172 86.70947266 C-44.60761083 92.79829962 -44.60761083 92.79829962 -45.9765625 99.96484375 C-45.50012156 102.42645527 -44.90407565 104.66490174 -44 107 C-35.56440555 103.69415893 -30.43136266 92.39823325 -26.5625 84.6875 C-26.23282227 84.03056152 -25.90314453 83.37362305 -25.56347656 82.69677734 C-22.93573352 77.25594888 -21 72.12296863 -21 66 C-24.24162256 66 -25.63198294 67.87083192 -28 70 Z M47 66 C40.90894524 72.09105476 37.09555367 79.50534468 33 87 C36.00295032 87.30912859 36.00295032 87.30912859 37.8671875 85.53125 C45.66960072 77.91084595 45.66960072 77.91084595 49.3125 68 C49.209375 67.34 49.10625 66.68 49 66 C48.34 66 47.68 66 47 66 Z M-317.1875 146.5625 C-318.02603516 147.17158203 -318.86457031 147.78066406 -319.72851562 148.40820312 C-327.27002247 153.97160982 -333.86324134 158.95875445 -337 168 C-335.10244856 170.34973818 -335.10244856 170.34973818 -331.875 170.125 C-322.52150814 168.38930048 -315.17785221 155.36425977 -310 148 C-308.46173212 145.36127895 -307.2112589 142.80791836 -306 140 C-310.16968704 140 -313.94809568 144.16032715 -317.1875 146.5625 Z " fill="#26C6B7" transform="translate(403,48)"/>
<path d="M0 0 C5.95762785 0.31355936 11.15105719 1.35293191 16 5 C21.42217031 11.65692196 22.35112754 17.23798812 21.5390625 25.6796875 C20.91392053 29.53019965 20.20892677 32.47452843 17.92578125 35.66015625 C14.30776721 38.17735466 10.32283718 37.77047022 6.05859375 37.671875 C2.47958753 36.88568206 1.19576089 35.89223711 -1 33 C-1.25 30.25 -1.25 30.25 -1 28 C0.32 28 1.64 28 3 28 C3 29.65 3 31.3 3 33 C5.43717258 32.72965366 5.43717258 32.72965366 8 32 C10.56687367 28.1496895 9.83288724 26.41430237 9 22 C-7.64772061 21.19120386 -19.31767432 25.48390591 -32.1875 36.4375 C-33.5796875 37.7059375 -33.5796875 37.7059375 -35 39 C-34.72179041 42.40362796 -34.30189714 43.71508126 -31.77734375 46.09765625 C-30.84019531 46.74605469 -29.90304688 47.39445312 -28.9375 48.0625 C-27.94363281 48.75085938 -26.94976562 49.43921875 -25.92578125 50.1484375 C-22.92403089 52.04807658 -19.90546174 53.59631908 -16.6875 55.08203125 C-14.01377504 56.53648812 -12.14333237 58.85666763 -10 61 C-6.75379163 63.1505402 -3.37846313 65.06595227 0 67 C1.77406344 68.0361559 3.54499869 69.07768952 5.3125 70.125 C6.09238281 70.58132813 6.87226563 71.03765625 7.67578125 71.5078125 C15.12156491 76.28813075 18.6825531 82.51221029 23 90 C23.67675781 91.09248047 23.67675781 91.09248047 24.3671875 92.20703125 C29.36205173 100.86601121 28.74622238 112.44428307 27 122 C24.5631432 130.65084163 20.87648016 137.26899812 15 144 C14.38769531 144.80695313 13.77539062 145.61390625 13.14453125 146.4453125 C4.6217566 156.59812601 -9.02009382 164.29866677 -22 167 C-47.80540743 169.18365235 -47.80540743 169.18365235 -58 161 C-64.09732216 155.74484941 -68.30180588 149.13860822 -69.22314453 141.03808594 C-69.84893065 132.44186414 -69.86907344 124.41666915 -65 117 C-64.32904297 115.92492187 -64.32904297 115.92492187 -63.64453125 114.828125 C-59.95312395 109.4048242 -56.20580825 106.62805481 -50.0625 104.25 C-45.28777793 103.67124581 -41.50584545 103.31254882 -37.125 105.3125 C-35 107 -35 107 -33 110 C-33 110.99 -33 111.98 -33 113 C-32.01 113.33 -31.02 113.66 -30 114 C-30 114.99 -30 115.98 -30 117 C-33.45454573 118.15151524 -35.99086922 117.99376244 -39.625 117.875 C-47.18185101 117.82820835 -52.69833153 118.79888769 -59 123 C-62.11164498 126.11164498 -62.17861516 128.96984547 -62.25 133.1875 C-62.1702014 138.22146193 -61.92327039 142.75933473 -59 147 C-51.11943684 153.5835538 -42.82832111 153.53684107 -33 153 C-29.94507257 152.49084543 -27.68728122 151.51844434 -25 150 C-23.61748047 149.29810547 -23.61748047 149.29810547 -22.20703125 148.58203125 C-10.16356204 141.6673398 -2.40034187 128.29484187 1.55859375 115.14453125 C3.06498577 107.82586558 3.12477772 100.9113362 -0.75 94.375 C-9.77163571 82.0040145 -20.93575847 74.89440062 -34.93774414 69.21386719 C-39.71531334 67.26710302 -42.08871567 65.32533672 -45 61 C-45.7136591 58.68060793 -46.3747292 56.34476551 -47 54 C-47.88209664 52.42970413 -48.77920965 50.86779169 -49.6875 49.3125 C-52.71488455 43.38387192 -52.64390895 38.38528844 -51 32 C-47.62800762 23.13080996 -39.21062674 17.98450964 -31 14 C-23.99384497 11.10557175 -16.73754769 9.20765435 -9.25 8.0625 C-5.41046838 7.40429458 -5.14383291 7.17189787 -2.4375 3.9375 C-1.963125 2.968125 -1.48875 1.99875 -1 1 C-0.67 0.67 -0.34 0.34 0 0 Z " fill="#26C6B7" transform="translate(200,245)"/>
<path d="M0 0 C5.36501113 -0.22479097 7.71304548 0.68735333 12 4 C15.5718623 7.5718623 16 12.10186234 16 17 C16.73605469 16.39671875 17.47210938 15.7934375 18.23046875 15.171875 C19.20628906 14.37265625 20.18210937 13.5734375 21.1875 12.75 C22.15042969 11.96109375 23.11335938 11.1721875 24.10546875 10.359375 C25.06066406 9.58078125 26.01585937 8.8021875 27 8 C27.87269531 7.26394531 28.74539063 6.52789062 29.64453125 5.76953125 C32.8430929 3.3666317 35.01447529 2.92882992 39 3 C44.01137482 6.78637208 45.62261603 10.56796999 46.5625 16.625 C46.7790625 18.295625 46.7790625 18.295625 47 20 C47.495 21.485 47.495 21.485 48 23 C47.24561901 25.71312461 46.41697504 28.3026993 45.47265625 30.94921875 C45.07100502 32.10814384 45.07100502 32.10814384 44.66123962 33.29048157 C43.80345988 35.75920172 42.93316393 38.22329796 42.0625 40.6875 C41.47898848 42.35973692 40.89629585 44.03225983 40.31445312 45.70507812 C38.88578552 49.80676519 37.44587684 53.9043493 36 58 C37.1127832 57.37416016 38.22556641 56.74832031 39.37207031 56.10351562 C39.99801086 55.75148071 40.62395142 55.3994458 41.26885986 55.03674316 C50.99609548 49.21130777 55.84909102 36.68671437 60.89013672 27.03369141 C62 25 62 25 64 22 C65.65 22.33 67.3 22.66 69 23 C63.8451175 39.33182399 54.57149141 53.78975133 40.5390625 63.74609375 C36.05271888 65.96165729 31.75041337 65.10912735 27 64 C23.49737647 62.48478057 21.61024347 60.270027 19.94140625 56.796875 C15.90261152 45.38054857 19.75893206 34.78476558 24 24 C25.51347467 20.89101951 27.1428959 17.91604857 29 15 C17.09466087 21.92643486 12.09853133 38.33131254 8.609375 50.96875 C8.36268066 51.83089111 8.11598633 52.69303223 7.86181641 53.58129883 C7.37877192 55.28988064 6.92167707 57.00605954 6.49365234 58.72924805 C5.84310702 61.02502674 5.23100646 62.9546266 4 65 C0.4765625 66.64453125 0.4765625 66.64453125 -3 67 C-7.33568087 64.63508316 -9.26789319 61.55817582 -11 57 C-11.04644224 55.00053929 -11.05290627 52.99930011 -11 51 C-11.53367187 51.68964844 -12.06734375 52.37929688 -12.6171875 53.08984375 C-29.69298121 74.62661471 -29.69298121 74.62661471 -41.7265625 76.40234375 C-49.12003471 76.6569399 -55.00628163 75.3949747 -60.8125 70.75 C-65.83521 64.435736 -66.45988648 58.94237865 -66.3125 51.125 C-66.31572266 50.27808594 -66.31894531 49.43117188 -66.32226562 48.55859375 C-66.19521749 33.47451494 -60.41480876 20.87533075 -50.11328125 9.98828125 C-44.30576585 4.52427878 -38.71620849 3.02124585 -30.8125 2.6875 C-25.45931821 3.12628539 -22.42703028 4.53440134 -18.6875 8.375 C-16.91239558 11.13627355 -16.363899 12.76800231 -16 16 C-19.41121116 30.42118924 -31.2342547 40.20416527 -43 48 C-46.11179915 49.60649066 -46.11179915 49.60649066 -46.546875 51.91796875 C-46.98702762 56.83582778 -46.9296945 61.14492874 -46 66 C-41.78379844 67.44238474 -39.16517466 66.93437882 -35.25 65.125 C-24.47247431 59.20381448 -13.31666331 48.35617685 -9.10546875 36.4765625 C-8.82338912 34.9317152 -8.5939694 33.37645612 -8.4140625 31.81640625 C-7.84728126 27.96122443 -6.70097578 24.34543445 -5.5625 20.625 C-3.50244644 13.79540894 -1.64547987 6.94312236 0 0 Z M-28.515625 18.36328125 C-36.47248913 27.1716205 -36.47248913 27.1716205 -40 38 C-33.71389131 35.356178 -29.4398074 29.38468101 -26 23.6875 C-24.76751086 20.85310501 -24.76751086 20.85310501 -25 17 C-27.09192883 16.77708234 -27.09192883 16.77708234 -28.515625 18.36328125 Z " fill="#26C6B7" transform="translate(301,313)"/>
<path d="M0 0 C3 1.5625 3 1.5625 5 4 C6.0625 7.4375 6.0625 7.4375 6 11 C3.96495255 14.27061197 2.20844935 15.86103376 -1 18 C-0.05125 18.61875 0.8975 19.2375 1.875 19.875 C6.17300288 23.48370053 6.45385892 27.65212061 7 33 C7.46825773 41.00790844 6.37811649 48.21735742 4.5625 56 C3.20684311 61.9086894 1.94405302 67.66343172 1.49609375 73.71875 C1.12417543 78.59705667 0.08327264 82.88589117 -1.5 87.5 C-1.72558594 88.18835938 -1.95117188 88.87671875 -2.18359375 89.5859375 C-2.77815494 91.39424786 -3.38813265 93.19747185 -4 95 C-5.0079222 98.02376659 -5.17290304 100.63695937 -5.29052734 103.80126953 C-5.62502875 112.75546616 -6.8196079 120.30377086 -10.625 128.5 C-12.16115997 132.41022537 -12.52498506 135.79857399 -12.7890625 139.9609375 C-13 142 -13 142 -14 143 C-20.4202059 143.06045392 -25.07644859 142.16608196 -30 138 C-31.71473285 134.57053431 -31.7168838 130.77306779 -32 127 C-32.06703125 126.11699219 -32.1340625 125.23398438 -32.203125 124.32421875 C-32.52386978 115.67556478 -31.04368545 107.51899179 -29.4230957 99.04638672 C-28.51553967 94.26726538 -27.87885159 89.88379526 -28 85 C-27.67 83.88625 -27.34 82.7725 -27 81.625 C-25.82003036 78.05362542 -25.82003036 78.05362542 -26.125 74.4375 C-26.25582164 70.50863066 -25.25352983 67.39220176 -24.03515625 63.66796875 C-21.7920492 56.03079416 -21.37362132 48.8370708 -21.3125 40.875 C-21.26979269 38.33067945 -21.22425501 35.78640472 -21.17578125 33.2421875 C-21.15467285 32.03272461 -21.13356445 30.82326172 -21.11181641 29.57714844 C-20.94888913 24.36489857 -20.51279792 19.18823752 -20 14 C-16.26798075 13.15323933 -13.73059699 13.04070363 -10 14 C-10.495 13.484375 -10.99 12.96875 -11.5 12.4375 C-13.56021138 9.08965651 -13.49125459 6.85985753 -13 3 C-9.92672919 -1.14223457 -4.69701983 -0.73678742 0 0 Z " fill="#25C6B7" transform="translate(63,24)"/>
<path d="M0 0 C3.99978851 1.40458492 7.84290993 2.59294678 12.03710938 3.30273438 C20.03666654 4.72975658 24.88760356 8.15903202 30.25976562 14.17773438 C31.41210938 16.17773438 31.41210938 16.17773438 31.33789062 18.13867188 C30.1274009 20.80481379 28.50981579 22.64215115 26.53710938 24.80273438 C25.48910156 25.96675781 25.48910156 25.96675781 24.41992188 27.15429688 C22.41210938 29.17773437 22.41210938 29.17773437 19.41210938 31.17773438 C17.35742188 31.00585938 17.35742188 31.00585938 15.41210938 30.17773438 C14.71085938 29.10523438 14.00960937 28.03273437 13.28710938 26.92773438 C4.23943361 13.57423702 -25.62391017 9.47888803 -40.48193359 6.62109375 C-59.08341855 3.42371472 -77.81596811 3.14365287 -96.53979492 5.38647461 C-102.73469951 6.12651205 -108.92055535 6.59286547 -115.15039062 6.92773438 C-116.06199951 6.98437256 -116.9736084 7.04101074 -117.9128418 7.09936523 C-118.75564697 7.1406958 -119.59845215 7.18202637 -120.46679688 7.22460938 C-121.21517822 7.26424805 -121.96355957 7.30388672 -122.73461914 7.34472656 C-124.58789062 7.17773438 -124.58789062 7.17773438 -126.58789062 5.17773438 C-108.37744237 -4.78647316 -87.06514178 -4.02041793 -66.83129883 -4.48095703 C-60.470723 -4.63350759 -54.20382088 -4.89326491 -47.88134766 -5.60180664 C-31.39936713 -7.18614009 -15.58398479 -5.48108404 0 0 Z " fill="#28C5B7" transform="translate(281.587890625,182.822265625)"/>
<path d="M0 0 C2.475 1.485 2.475 1.485 5 3 C4.67 7.62 4.34 12.24 4 17 C2.68 17.33 1.36 17.66 0 18 C-0.33 16.68 -0.66 15.36 -1 14 C-2.97536745 14.34786708 -2.97536745 14.34786708 -5 15 C-5.33 15.66 -5.66 16.32 -6 17 C-6.66 17 -7.32 17 -8 17 C-7.97679687 17.74765625 -7.95359375 18.4953125 -7.9296875 19.265625 C-7.90261719 20.74289063 -7.90261719 20.74289063 -7.875 22.25 C-7.85179687 23.22453125 -7.82859375 24.1990625 -7.8046875 25.203125 C-8.00137219 28.0196498 -8.55431084 29.60949036 -10 32 C-11.98 32 -13.96 32 -16 32 C-16 31.34 -16 30.68 -16 30 C-16.66 30 -17.32 30 -18 30 C-20.34781739 22.95654782 -19.07719752 16.92819219 -16.20703125 10.3359375 C-14.14264764 6.34078734 -11.77518578 3.25980926 -8.0625 0.625 C-5.20453603 -0.24104969 -2.97425938 -0.30349585 0 0 Z " fill="#25C7B8" transform="translate(299,70)"/>
<path d="M0 0 C2.23227766 1.15608485 4.00000226 2.45000175 6 4 C5.68701233 11.35521031 2.16033558 16.83966442 -3 22 C-6.82114638 21.85847606 -9.23118107 21.58180892 -12.3125 19.25 C-15.46606002 15.04525331 -16.75199237 11.26394658 -16 6 C-11.97443642 -0.65766284 -7.36581184 -1.85879244 0 0 Z " fill="#29C4B6" transform="translate(272,62)"/>
<path d="M0 0 C-0.49831088 4.57781594 -1.5416024 7.27659247 -4.3125 10.9375 C-6.38740633 13.75164421 -8.33357996 16.45580802 -9.9375 19.5625 C-12.53374431 24.29616959 -16.32595192 28.08891656 -20 32 C-20.804375 32.86625 -21.60875 33.7325 -22.4375 34.625 C-32.63377804 44.07520891 -32.63377804 44.07520891 -38 45 C-38 44.34 -38 43.68 -38 43 C-37.01 42.34 -36.02 41.68 -35 41 C-35 40.34 -35 39.68 -35 39 C-36.98 39 -38.96 39 -41 39 C-38 37 -38 37 -35.8359375 35.80859375 C-25.32125952 29.95041602 -18.55777612 21.92732468 -12 12 C-10.75729001 10.16171738 -9.5074177 8.32825377 -8.25 6.5 C-7.69828125 5.6853125 -7.1465625 4.870625 -6.578125 4.03125 C-4.69840751 1.61181165 -3.1972765 0 0 0 Z " fill="#37BEB1" transform="translate(478,126)"/>
<path d="M0 0 C1.32 1.65 2.64 3.3 4 5 C-2.70754356 12.66411764 -9.12364009 19.7738823 -18 25 C-18.9590625 25.57427734 -18.9590625 25.57427734 -19.9375 26.16015625 C-22.55488802 27.22594872 -24.68015973 27.26549363 -27.5 27.25 C-28.4384375 27.25515625 -29.376875 27.2603125 -30.34375 27.265625 C-33.04047676 26.99595232 -34.68949293 26.3732259 -37 25 C-34.69 24.34 -32.38 23.68 -30 23 C-30 23.66 -30 24.32 -30 25 C-27.94729537 23.15811388 -27.94729537 23.15811388 -27 21 C-27.99 20.67 -28.98 20.34 -30 20 C-31.60725635 16.78548731 -31.05748185 13.56387464 -31 10 C-30.67 10 -30.34 10 -30 10 C-29.67 12.31 -29.34 14.62 -29 17 C-24.78379844 18.44238474 -22.16517466 17.93437882 -18.25 16.125 C-11.05277846 12.23784706 -4.71851985 6.69089149 0 0 Z " fill="#30C0B3" transform="translate(284,362)"/>
<path d="M0 0 C0.33 0.66 0.66 1.32 1 2 C1.99 2 2.98 2 4 2 C4.16986545 3.56215548 4.33573964 5.1247452 4.5 6.6875 C4.5928125 7.55761719 4.685625 8.42773438 4.78125 9.32421875 C4.99159864 11.89723339 5.03719144 14.41984364 5 17 C2.87491756 13.81237635 2.4979837 11.73487777 2 8 C1.443125 8.7734375 0.88625 9.546875 0.3125 10.34375 C-11.8558952 26.95196507 -11.8558952 26.95196507 -18 29 C-18 28.34 -18 27.68 -18 27 C-17.34 27 -16.68 27 -16 27 C-16 25.68 -16 24.36 -16 23 C-16.99 22.67 -17.98 22.34 -19 22 C-18.29875 21.33355469 -17.5975 20.66710937 -16.875 19.98046875 C-10.43876472 13.7626037 -5.02308081 7.44106814 0 0 Z " fill="#2EC3B7" transform="translate(142,140)"/>
<path d="M0 0 C0 0.66 0 1.32 0 2 C0.99 2.33 1.98 2.66 3 3 C2.17757812 3.556875 1.35515625 4.11375 0.5078125 4.6875 C-15.76278738 14.52446096 -15.76278738 14.52446096 -26.71484375 29.078125 C-27.19951324 31.07900966 -27.19951324 31.07900966 -26 33 C-26.99 32.67 -27.98 32.34 -29 32 C-29 30.02 -29 28.04 -29 26 C-28.34 26 -27.68 26 -27 26 C-27 25.01 -27 24.02 -27 23 C-27.66 22.67 -28.32 22.34 -29 22 C-27.38405168 19.95880212 -25.7143618 17.95927063 -24 16 C-23.34 16 -22.68 16 -22 16 C-22 15.34 -22 14.68 -22 14 C-20.19580078 12.48779297 -20.19580078 12.48779297 -17.6953125 10.7421875 C-16.80199219 10.11699219 -15.90867187 9.49179688 -14.98828125 8.84765625 C-14.04339844 8.19667969 -13.09851563 7.54570312 -12.125 6.875 C-11.18785156 6.21628906 -10.25070313 5.55757812 -9.28515625 4.87890625 C-2.2647839 0 -2.2647839 0 0 0 Z " fill="#32BEB2" transform="translate(94,185)"/>
<path d="M0 0 C0.33 0 0.66 0 1 0 C1 1.65 1 3.3 1 5 C2.65 5 4.3 5 6 5 C5.67 6.32 5.34 7.64 5 9 C4.67 8.01 4.34 7.02 4 6 C3.34 6 2.68 6 2 6 C1.73574219 6.70253906 1.47148437 7.40507812 1.19921875 8.12890625 C-2.31792901 16.54943917 -6.61321373 23.57297335 -14 29 C-14.66 28.67 -15.32 28.34 -16 28 C-15.67 27.34 -15.34 26.68 -15 26 C-14.34 26 -13.68 26 -13 26 C-13 25.34 -13 24.68 -13 24 C-12.34 23.34 -11.68 22.68 -11 22 C-12.65 22.33 -14.3 22.66 -16 23 C-15.195625 22.13375 -14.39125 21.2675 -13.5625 20.375 C-8.35303723 14.33052764 -3.56948545 7.1389709 0 0 Z " fill="#35BFB2" transform="translate(339,148)"/>
<path d="M0 0 C0.33 0 0.66 0 1 0 C1 2.31 1 4.62 1 7 C1.99 7.33 2.98 7.66 4 8 C3.01 10.64 2.02 13.28 1 16 C2.32 16.66 3.64 17.32 5 18 C5 18.66 5 19.32 5 20 C5.66 18.35 6.32 16.7 7 15 C7.99 15 8.98 15 10 15 C10.66 16.32 11.32 17.64 12 19 C13.65 19 15.3 19 17 19 C16.67 18.01 16.34 17.02 16 16 C16.99 16 17.98 16 19 16 C19 13.69 19 11.38 19 9 C19.33 9 19.66 9 20 9 C20.46450943 15.50313209 19.32575612 19.4174808 16 25 C6.29390018 24.012939 6.29390018 24.012939 3 22 C-1.50043227 16.28323468 -1.66456693 11.11413449 -1 4 C-0.70114388 2.65851802 -0.38042667 1.32066818 0 0 Z " fill="#31C2B4" transform="translate(178,133)"/>
<path d="M0 0 C0.33 0 0.66 0 1 0 C1.22174933 1.45635371 1.42698698 2.91522956 1.625 4.375 C1.79902344 5.59316406 1.79902344 5.59316406 1.9765625 6.8359375 C1.98429687 7.55007812 1.99203125 8.26421875 2 9 C1.34 9.66 0.68 10.32 0 11 C-0.99 11 -1.98 11 -3 11 C-3.33 12.65 -3.66 14.3 -4 16 C-4.66 16 -5.32 16 -6 16 C-6.16687448 18.41645782 -6.16687448 18.41645782 -6 21 C-5.34 21.66 -4.68 22.32 -4 23 C-7.66666667 26.66666667 -11.33333333 30.33333333 -15 34 C-15 32.02 -15 30.04 -15 28 C-15.99 27.67 -16.98 27.34 -18 27 C-17.34 26.38125 -16.68 25.7625 -16 25.125 C-11.95095551 21.07595551 -8.48763672 16.53100921 -5 12 C-4.32324219 11.12408203 -4.32324219 11.12408203 -3.6328125 10.23046875 C-1.2344204 6.91298479 -0.38642331 4.05744473 0 0 Z " fill="#32C1B3" transform="translate(412,133)"/>
<path d="M0 0 C0.33 0 0.66 0 1 0 C0.69744271 4.50706035 0.29510411 8.31142375 -1.5 12.5 C-3.25107285 16.69247249 -3.32846433 20.89472077 -3.5 25.375 C-3.82265785 33.45191079 -5.20038134 40.12389827 -8.625 47.5 C-10.38477795 51.97943478 -10.7214687 56.22654974 -11 61 C-11.33 61 -11.66 61 -12 61 C-12.32760214 54.50862425 -12.11324494 49.07046398 -9.75390625 42.97265625 C-8.94928083 40.99072714 -8.94928083 40.99072714 -8.46484375 38.80859375 C-8 37 -8 37 -7 36 C-6.84344973 34.51361008 -6.74933057 33.02050873 -6.68359375 31.52734375 C-6.64169922 30.62822266 -6.59980469 29.72910156 -6.55664062 28.80273438 C-6.51732422 27.85720703 -6.47800781 26.91167969 -6.4375 25.9375 C-6.39431641 24.98810547 -6.35113281 24.03871094 -6.30664062 23.06054688 C-6.20020724 20.70718647 -6.09818992 18.35371646 -6 16 C-5.34 16 -4.68 16 -4 16 C-3.05675742 11.68803391 -2.51958285 7.37934119 -2 3 C-1.34 3 -0.68 3 0 3 C0 2.01 0 1.02 0 0 Z " fill="#3FBBAE" transform="translate(61,105)"/>
<path d="M0 0 C0.33 0.99 0.66 1.98 1 3 C3.01508358 3.73323796 3.01508358 3.73323796 5 4 C1.33133644 8.5142775 -2.33534808 12.50151106 -7 16 C-7.66 16 -8.32 16 -9 16 C-10.79392044 12.18791906 -11.45791808 9.21284637 -11 5 C-9.5 3.125 -9.5 3.125 -8 2 C-7.34 2.33 -6.68 2.66 -6 3 C-6.99 4.98 -7.98 6.96 -9 9 C-7.68412059 7.87895467 -6.37239647 6.75303035 -5.0625 5.625 C-4.33160156 4.99851562 -3.60070312 4.37203125 -2.84765625 3.7265625 C-0.91619094 2.12252286 -0.91619094 2.12252286 0 0 Z " fill="#36BDB1" transform="translate(270,342)"/>
<path d="M0 0 C3.09851777 1.8074687 4.59108071 2.86760812 5.8125 6.25 C5.874375 6.8275 5.93625 7.405 6 8 C5.34 8 4.68 8 4 8 C3.67 7.01 3.34 6.02 3 5 C-0.24224578 3.39471538 -0.24224578 3.39471538 -4 3 C-6.94900524 4.72376805 -6.94900524 4.72376805 -9 7 C-9.66 6.67 -10.32 6.34 -11 6 C-11.33 12.6 -11.66 19.2 -12 26 C-12.99 26.33 -13.98 26.66 -15 27 C-14.91852902 23.79067345 -14.80574254 20.58316561 -14.6875 17.375 C-14.66494141 16.47136719 -14.64238281 15.56773438 -14.61914062 14.63671875 C-14.40924088 9.40830689 -13.95074671 5.50262091 -11 1 C-7.53708628 -0.73145686 -3.78629108 -0.47737349 0 0 Z " fill="#37BEB2" transform="translate(403,48)"/>
<path d="M0 0 C0.33 0 0.66 0 1 0 C1.24970296 2.72868171 1.47531211 5.45586014 1.6875 8.1875 C1.76033203 8.95642578 1.83316406 9.72535156 1.90820312 10.51757812 C2.25073351 15.21225927 2.19351677 18.21481029 -1 22 C-1.66 22 -2.32 22 -3 22 C-5.28262178 16.15078169 -6.03768439 11.09061613 -3.625 5.1875 C-2 2 -2 2 0 0 Z " fill="#2AC4B7" transform="translate(136,368)"/>
<path d="M0 0 C0.99 0.33 1.98 0.66 3 1 C2.67 1.66 2.34 2.32 2 3 C1.34 3 0.68 3 0 3 C-0.33 4.65 -0.66 6.3 -1 8 C-0.01 8 0.98 8 2 8 C1.52389341 12.99911924 -0.03162219 15.97832683 -3 20 C-4.9375 19.6875 -4.9375 19.6875 -7 19 C-8 16 -8 16 -7.37915039 14.19067383 C-7.03875732 13.53607178 -6.69836426 12.88146973 -6.34765625 12.20703125 C-5.98349609 11.49482422 -5.61933594 10.78261719 -5.24414062 10.04882812 C-4.85419922 9.31083984 -4.46425781 8.57285156 -4.0625 7.8125 C-3.48338867 6.68811523 -3.48338867 6.68811523 -2.89257812 5.54101562 C-1.93728243 3.68939311 -0.96978423 1.84407548 0 0 Z " fill="#32C1B5" transform="translate(79,118)"/>
<path d="M0 0 C0.33 1.32 0.66 2.64 1 4 C2.32 4.33 3.64 4.66 5 5 C1.37 8.63 -2.26 12.26 -6 16 C-6.66 15.67 -7.32 15.34 -8 15 C-8 14.34 -8 13.68 -8 13 C-8.99 13.33 -9.98 13.66 -11 14 C-9.42219077 10.28954753 -7.09296752 7.70093616 -4.375 4.75 C-3.55773437 3.85796875 -2.74046875 2.9659375 -1.8984375 2.046875 C-1.27195312 1.37140625 -0.64546875 0.6959375 0 0 Z " fill="#30BFB1" transform="translate(449,123)"/>
<path d="M0 0 C0.33 0.66 0.66 1.32 1 2 C0.67 2.66 0.34 3.32 0 4 C1.94074861 3.72382467 1.94074861 3.72382467 4 3 C4.66 2.01 5.32 1.02 6 0 C7.32 0 8.64 0 10 0 C10 1.98 10 3.96 10 6 C9.67 6 9.34 6 9 6 C9 4.35 9 2.7 9 1 C6.29348412 3.62918685 3.89111397 6.13959747 1.5625 9.125 C-1.10979369 12.12318317 -3.32751004 13.46267862 -7 15 C-7 13.35 -7 11.7 -7 10 C-6.01 9.67 -5.02 9.34 -4 9 C-3.67 8.34 -3.34 7.68 -3 7 C-4.98 7.99 -4.98 7.99 -7 9 C-5.44499019 5.18315774 -2.96404505 2.80804268 0 0 Z " fill="#31C1B3" transform="translate(229,146)"/>
<path d="M0 0 C4.15778498 0.07573379 6.22144865 1.40894865 9.1875 4.375 C8.8575 5.035 8.5275 5.695 8.1875 6.375 C7.1975 6.705 6.2075 7.035 5.1875 7.375 C3.50720006 8.35191857 1.83821396 9.34888051 0.1875 10.375 C0.1875 9.055 0.1875 7.735 0.1875 6.375 C-0.4725 6.045 -1.1325 5.715 -1.8125 5.375 C-2.1425 6.695 -2.4725 8.015 -2.8125 9.375 C-3.4725 9.375 -4.1325 9.375 -4.8125 9.375 C-5.4375 6 -5.4375 6 -5.8125 2.375 C-3.8125 0.375 -3.8125 0.375 0 0 Z " fill="#25C7B9" transform="translate(57.8125,24.625)"/>
<path d="M0 0 C0.33 0.99 0.66 1.98 1 3 C0.34 3.66 -0.32 4.32 -1 5 C-0.938125 6.38058594 -0.938125 6.38058594 -0.875 7.7890625 C-1.03498768 11.89874599 -2.34247586 13.30223771 -5 16.375 C-6.11375 17.68597656 -6.11375 17.68597656 -7.25 19.0234375 C-7.8275 19.67570312 -8.405 20.32796875 -9 21 C-9 20.01 -9 19.02 -9 18 C-9.165 17.34 -9.33 16.68 -9.5 16 C-10 14 -10 14 -10 11 C-8.57421875 9.0625 -8.57421875 9.0625 -6.6875 7 C-5.76517578 5.9790625 -5.76517578 5.9790625 -4.82421875 4.9375 C-3.24455272 3.25973908 -1.64189074 1.61663089 0 0 Z " fill="#31C0B2" transform="translate(183,103)"/>
<path d="M0 0 C0.66 0.33 1.32 0.66 2 1 C2 1.66 2 2.32 2 3 C2.99 3.66 3.98 4.32 5 5 C3.700625 5.6496875 3.700625 5.6496875 2.375 6.3125 C-2.47438579 9.46460077 -4.54627501 14.95333158 -7 20 C-7.33 20 -7.66 20 -8 20 C-8.14338099 12.54418835 -7.62789723 7.7530352 -2.375 2.25 C-1.59125 1.5075 -0.8075 0.765 0 0 Z " fill="#2BC4B7" transform="translate(325,323)"/>
<path d="M0 0 C0 1.65 0 3.3 0 5 C-0.99 5 -1.98 5 -3 5 C-3 5.99 -3 6.98 -3 8 C-2.34 8.33 -1.68 8.66 -1 9 C-4.66666667 12.66666667 -8.33333333 16.33333333 -12 20 C-12 18.68 -12 17.36 -12 16 C-11.34 16 -10.68 16 -10 16 C-10.33 14.35 -10.66 12.7 -11 11 C-10.01 10.67 -9.02 10.34 -8 10 C-8 9.01 -8 8.02 -8 7 C-6.50390625 5.17578125 -6.50390625 5.17578125 -4.5625 3.3125 C-3.92441406 2.68988281 -3.28632813 2.06726563 -2.62890625 1.42578125 C-1 0 -1 0 0 0 Z " fill="#30C0B0" transform="translate(211,104)"/>
<path d="M0 0 C1.24546405 2.49092811 0.7767578 3.41080733 0 6 C1.65 6 3.3 6 5 6 C5.53154742 7.60064843 6.04988353 9.20568874 6.5625 10.8125 C6.85253906 11.70582031 7.14257812 12.59914062 7.44140625 13.51953125 C8 16 8 16 7 19 C4 12.5 4 12.5 4 8 C1.03 10.475 1.03 10.475 -2 13 C-2 11.35 -2 9.7 -2 8 C-3.32 8.33 -4.64 8.66 -6 9 C-4.02 6.03 -2.04 3.06 0 0 Z " fill="#37BFB1" transform="translate(371,141)"/>
<path d="M0 0 C1.32 0.33 2.64 0.66 4 1 C-2.35777009 6.55787711 -8.81252781 11.50697602 -17 14 C-17.99 13.67 -18.98 13.34 -20 13 C-19.34 12.67 -18.68 12.34 -18 12 C-17.34786708 9.97536745 -17.34786708 9.97536745 -17 8 C-15.02 8.66 -13.04 9.32 -11 10 C-11 9.34 -11 8.68 -11 8 C-9.88625 7.566875 -8.7725 7.13375 -7.625 6.6875 C-3.82487666 5.30088881 -3.82487666 5.30088881 -2 2 C-1.34 2 -0.68 2 0 2 C0 1.34 0 0.68 0 0 Z " fill="#3BBCAD" transform="translate(204,395)"/>
<path d="M0 0 C0.93714922 3.11751998 1.05686895 5.74149909 0.87890625 8.984375 C0.83056641 9.91894531 0.78222656 10.85351562 0.73242188 11.81640625 C0.67634766 12.78449219 0.62027344 13.75257813 0.5625 14.75 C0.51029297 15.73355469 0.45808594 16.71710938 0.40429688 17.73046875 C0.27488563 20.15398849 0.13993095 22.57706864 0 25 C0.66 25.33 1.32 25.66 2 26 C2 26.99 2 27.98 2 29 C1.34 29 0.68 29 0 29 C-0.33 29.99 -0.66 30.98 -1 32 C-2.40495202 27.78514393 -2.18429612 23.78994761 -2.1875 19.375 C-2.20586914 18.07755859 -2.20586914 18.07755859 -2.22460938 16.75390625 C-2.23783588 10.8725205 -1.4621442 5.69831691 0 0 Z " fill="#35C3B9" transform="translate(237,345)"/>
<path d="M0 0 C0 1.98 0 3.96 0 6 C-2.97 7.32 -5.94 8.64 -9 10 C-9.33 8.68 -9.66 7.36 -10 6 C-8.52270825 4.99723227 -7.04311423 3.99785546 -5.5625 3 C-4.73878906 2.443125 -3.91507812 1.88625 -3.06640625 1.3125 C-1 0 -1 0 0 0 Z " fill="#26C7B8" transform="translate(456,155)"/>
<path d="M0 0 C0.70125 0.2475 1.4025 0.495 2.125 0.75 C2.125 1.74 2.125 2.73 2.125 3.75 C-0.1875 5.5 -0.1875 5.5 -2.875 6.75 C-3.865 6.42 -4.855 6.09 -5.875 5.75 C-6.535 6.41 -7.195 7.07 -7.875 7.75 C-8.205 6.43 -8.535 5.11 -8.875 3.75 C-3.58269231 -0.31153846 -3.58269231 -0.31153846 0 0 Z " fill="#26C7B8" transform="translate(272.875,377.25)"/>
<path d="M0 0 C3 1 3 1 5 4 C5 4.99 5 5.98 5 7 C5.99 7.33 6.98 7.66 8 8 C8 8.99 8 9.98 8 11 C4.45325997 12.18224668 2.02477005 11.89329634 -1.6875 11.5625 C-2.86699219 11.46066406 -4.04648438 11.35882813 -5.26171875 11.25390625 C-6.16535156 11.17011719 -7.06898438 11.08632813 -8 11 C-8 10.67 -8 10.34 -8 10 C-2.06 9.505 -2.06 9.505 4 9 C3.34 8.34 2.68 7.68 2 7 C2 5.68 2 4.36 2 3 C1.01 3 0.02 3 -1 3 C-0.67 2.01 -0.34 1.02 0 0 Z " fill="#34C3B5" transform="translate(162,351)"/>
<path d="M0 0 C2 2 2 2 2 6 C5.16666667 4.16666667 5.16666667 4.16666667 7 1 C7.66 3.31 8.32 5.62 9 8 C7.35 8 5.7 8 4 8 C4.350625 8.598125 4.70125 9.19625 5.0625 9.8125 C6 12 6 12 5 15 C1.65405342 9.81917949 0.43173504 6.15222436 0 0 Z " fill="#3AC0B3" transform="translate(131,384)"/>
<path d="M0 0 C1.38271605 4.14814815 1.38271605 4.14814815 0 7 C-4.1254156 10.05280755 -5.75971502 11.07874825 -10.9375 10.75 C-12.4534375 10.37875 -12.4534375 10.37875 -14 10 C-14 9.67 -14 9.34 -14 9 C-12.989375 8.814375 -11.97875 8.62875 -10.9375 8.4375 C-6.07348268 7.09741359 -3.24494783 3.68878568 0 0 Z " fill="#2BC4B3" transform="translate(82,209)"/>
<path d="M0 0 C0 0.66 0 1.32 0 2 C-0.639375 2.28875 -1.27875 2.5775 -1.9375 2.875 C-4.15206079 3.82823451 -4.15206079 3.82823451 -5 6 C-5.99 6.33 -6.98 6.66 -8 7 C-8 8.65 -8 10.3 -8 12 C-10.64 11.67 -13.28 11.34 -16 11 C-14.03617993 9.49440461 -12.21736634 8.10868317 -10 7 C-9.67 6.01 -9.34 5.02 -9 4 C-6.33916031 2.00603743 -3.38757675 0 0 0 Z " fill="#38BFB1" transform="translate(310,103)"/>
<path d="M0 0 C0.99 0.66 1.98 1.32 3 2 C2.34 2 1.68 2 1 2 C0.67 3.98 0.34 5.96 0 8 C3.3 8 6.6 8 10 8 C8 10 8 10 5.5390625 10.265625 C4.57742188 10.26046875 3.61578125 10.2553125 2.625 10.25 C1.19027344 10.25773438 1.19027344 10.25773438 -0.2734375 10.265625 C-3.01058658 9.99896864 -4.65987457 9.39742087 -7 8 C-5.68 8 -4.36 8 -3 8 C-1.92474806 5.34771188 -0.90543849 2.71631546 0 0 Z " fill="#39C0B4" transform="translate(430,163)"/>
<path d="M0 0 C0.87926324 2.9113383 1.03040415 5.06444747 0.5625 8.0625 C-0.07071068 11.83206214 -0.07071068 11.83206214 0 15 C-0.99 15.33 -1.98 15.66 -3 16 C-3 16.99 -3 17.98 -3 19 C-4.65 19.33 -6.3 19.66 -8 20 C-6.85998964 17.52997755 -5.6603349 15.55418955 -4 13.375 C-1.43654444 9.04916874 -0.73959028 4.9241142 0 0 Z " fill="#35BFB2" transform="translate(293,342)"/>
<path d="M0 0 C0 1.32 0 2.64 0 4 C-2.33333333 4 -4.66666667 4 -7 4 C-7.66 4.66 -8.32 5.32 -9 6 C-11.125 5.625 -11.125 5.625 -13 5 C-8.22381734 1.10364046 -6.19598355 -0.13469529 0 0 Z " fill="#2AC1B3" transform="translate(299,70)"/>
<path d="M0 0 C3.51820741 0.60086239 5.50182456 1.93215628 8.1875 4.25 C8.88230469 4.83265625 9.57710938 5.4153125 10.29296875 6.015625 C12.29176291 8.33916603 12.65255491 9.99226639 13 13 C12.01 13.495 12.01 13.495 11 14 C10.814375 13.071875 10.62875 12.14375 10.4375 11.1875 C8.89272441 7.76212803 8.61378762 7.4794021 5.375 6.125 C4.26125 5.75375 3.1475 5.3825 2 5 C2.33 4.01 2.66 3.02 3 2 C2.01 2 1.02 2 0 2 C0 1.34 0 0.68 0 0 Z " fill="#38BBAE" transform="translate(300,189)"/>
<path d="M0 0 C0.66 1.32 1.32 2.64 2 4 C1.01 4.495 1.01 4.495 0 5 C0.99 5.33 1.98 5.66 3 6 C1.68 7.32 0.36 8.64 -1 10 C-1.33 8.68 -1.66 7.36 -2 6 C-4.31 7.65 -6.62 9.3 -9 11 C-9.66 10.67 -10.32 10.34 -11 10 C-5.555 5.05 -5.555 5.05 0 0 Z " fill="#38B9AD" transform="translate(457,150)"/>
<path d="M0 0 C0 1.33333333 0 2.66666667 0 4 C1.65 4 3.3 4 5 4 C4.07038578 5.15224028 3.1309875 6.29659176 2.1875 7.4375 C1.40439453 8.39462891 1.40439453 8.39462891 0.60546875 9.37109375 C-1 11 -1 11 -4 12 C-4 11.34 -4 10.68 -4 10 C-3.34 10 -2.68 10 -2 10 C-2 8.68 -2 7.36 -2 6 C-2.99 5.67 -3.98 5.34 -5 5 C-3.35 3.35 -1.7 1.7 0 0 Z " fill="#39BDAF" transform="translate(128,157)"/>
<path d="M0 0 C-1.485 1.485 -1.485 1.485 -3 3 C-1.02 3 0.96 3 3 3 C3 3.33 3 3.66 3 4 C0.87631556 4.22134176 -1.24904024 4.42670007 -3.375 4.625 C-4.55835938 4.74101562 -5.74171875 4.85703125 -6.9609375 4.9765625 C-7.96382812 4.98429688 -8.96671875 4.99203125 -10 5 C-10.66 4.34 -11.32 3.68 -12 3 C-10.75823305 2.29773859 -9.50614401 1.61370891 -8.25 0.9375 C-7.20585937 0.36322266 -7.20585937 0.36322266 -6.140625 -0.22265625 C-3.63859372 -1.1312406 -2.4667645 -0.88336837 0 0 Z " fill="#38BFB3" transform="translate(167,185)"/>
<path d="M0 0 C2.125 0.9375 2.125 0.9375 4 2 C0.66666667 5.33333333 -2.66666667 8.66666667 -6 12 C-5.67 9.69 -5.34 7.38 -5 5 C-4.01 4.67 -3.02 4.34 -2 4 C-2 3.01 -2 2.02 -2 1 C-1.34 0.67 -0.68 0.34 0 0 Z " fill="#33C0B5" transform="translate(376,113)"/>
<path d="M0 0 C0.33 0.99 0.66 1.98 1 3 C0.34 3.66 -0.32 4.32 -1 5 C-0.938125 5.928125 -0.87625 6.85625 -0.8125 7.8125 C-1 11 -1 11 -3.5 13.875 C-4.7375 14.926875 -4.7375 14.926875 -6 16 C-6 14.35 -6 12.7 -6 11 C-5.01 11 -4.02 11 -3 11 C-3 10.01 -3 9.02 -3 8 C-3.99 8 -4.98 8 -6 8 C-4.55746343 4.63408134 -2.66735273 2.48952921 0 0 Z " fill="#3ABDB0" transform="translate(183,103)"/>
<path d="M0 0 C0.66 1.32 1.32 2.64 2 4 C2.66 4 3.32 4 4 4 C4.268125 4.928125 4.53625 5.85625 4.8125 6.8125 C5.93710035 9.8311641 6.70706573 10.9155143 9 13 C9 13.66 9 14.32 9 15 C4.61144323 13.27592413 2.08513063 10.17026127 0 6 C-0.039992 4.00039988 -0.04346799 1.99952758 0 0 Z " fill="#34C1B2" transform="translate(61,214)"/>
<path d="M0 0 C1.32 0 2.64 0 4 0 C2.50829734 4.9723422 0.39542583 9.41845739 -2 14 C-3.1200071 10.63997871 -2.8208325 9.36541324 -2 6 C-1.7525 4.9171875 -1.7525 4.9171875 -1.5 3.8125 C-1 2 -1 2 0 0 Z " fill="#31C1B5" transform="translate(114,188)"/>
<path d="M0 0 C0 1.65 0 3.3 0 5 C-0.99 5.33 -1.98 5.66 -3 6 C-3 6.99 -3 7.98 -3 9 C-3.99 9 -4.98 9 -6 9 C-6.75 6.75 -6.75 6.75 -7 4 C-4.69139139 0.94933862 -3.89789797 0 0 0 Z " fill="#21C9BB" transform="translate(456,118)"/>
<path d="M0 0 C3.81434921 1.49849433 5.80790825 3.55528439 8 7 C8.31033868 10.16545451 8.42662219 12.14675563 7 15 C6.34 15 5.68 15 5 15 C5 11.7 5 8.4 5 5 C4.01 5 3.02 5 2 5 C1.34 3.35 0.68 1.7 0 0 Z " fill="#37BEAD" transform="translate(319,103)"/>
<path d="M0 0 C1.32 0.33 2.64 0.66 4 1 C2.68 3.64 1.36 6.28 0 9 C-1.65 8.01 -3.3 7.02 -5 6 C-4.67 4.68 -4.34 3.36 -4 2 C-2.02 2.495 -2.02 2.495 0 3 C0 2.01 0 1.02 0 0 Z " fill="#35BDB3" transform="translate(90,102)"/>
<path d="M0 0 C1.98 0.66 3.96 1.32 6 2 C4.6302836 5.99500618 2.74277578 8.80009492 0 12 C0 8.04 0 4.08 0 0 Z " fill="#33C0B4" transform="translate(97,146)"/>
<path d="M0 0 C3.1875 -0.375 3.1875 -0.375 7 0 C11.01091219 3.66213721 12.6135152 6.58921275 13 12 C12.34 11.67 11.68 11.34 11 11 C10.375 8.4375 10.375 8.4375 10 6 C9.01 6.33 8.02 6.66 7 7 C6.67 6.01 6.34 5.02 6 4 C6.33 3.34 6.66 2.68 7 2 C4.69 1.67 2.38 1.34 0 1 C0 0.67 0 0.34 0 0 Z " fill="#38BCAD" transform="translate(250,101)"/>
<path d="M0 0 C4.50172909 -0.35307679 7.92625304 -0.55924321 12 1.5625 C14.6129983 4.74709168 15 6.90988276 15 11 C13.5 12.71484375 13.5 12.71484375 12 14 C12.06960937 13.07767578 12.06960937 13.07767578 12.140625 12.13671875 C12.50994204 7.18258353 12.50994204 7.18258353 10.375 2.9375 C7.46937651 1.79054336 5.10038105 1.93260041 2 2 C1.34 1.34 0.68 0.68 0 0 Z " fill="#3FBAAD" transform="translate(54,24)"/>
<path d="M0 0 C0 3 0 3 -1 6 C0.65 5.67 2.3 5.34 4 5 C2.35 6.98 0.7 8.96 -1 11 C-1.33 9.68 -1.66 8.36 -2 7 C-3.98 7.66 -5.96 8.32 -8 9 C-7.04270084 7.87411986 -6.08412105 6.7493285 -5.125 5.625 C-4.59132813 4.99851563 -4.05765625 4.37203125 -3.5078125 3.7265625 C-2.38567993 2.44163349 -1.20628025 1.20628025 0 0 Z " fill="#3CBAB0" transform="translate(267,146)"/>
<path d="M0 0 C0.33 0.66 0.66 1.32 1 2 C-2.14754098 8.64480874 -2.14754098 8.64480874 -5.25 9.9375 C-5.8275 9.958125 -6.405 9.97875 -7 10 C-7 9.34 -7 8.68 -7 8 C-6.01 8 -5.02 8 -4 8 C-4.33 6.02 -4.66 4.04 -5 2 C-3.35 1.34 -1.7 0.68 0 0 Z " fill="#33C0B4" transform="translate(163,151)"/>
<path d="M0 0 C0.66 0.33 1.32 0.66 2 1 C1.67 1.33 1.34 1.66 1 2 C0.95936168 3.66617115 0.957279 5.33388095 1 7 C1.66 7.33 2.32 7.66 3 8 C3.625 11.0625 3.625 11.0625 4 14 C0.83884224 12.63016497 0.0072908 12.0109362 -2 9 C-2.25 5.4375 -2.25 5.4375 -2 2 C-1.34 1.34 -0.68 0.68 0 0 Z " fill="#33BFAF" transform="translate(52,25)"/>
<path d="M0 0 C0 0.66 0 1.32 0 2 C3.3 2 6.6 2 10 2 C8 4 8 4 5.5390625 4.265625 C4.57742188 4.26046875 3.61578125 4.2553125 2.625 4.25 C1.19027344 4.25773437 1.19027344 4.25773437 -0.2734375 4.265625 C-3.01058658 3.99896864 -4.65987457 3.39742087 -7 2 C-2.25 0 -2.25 0 0 0 Z " fill="#3EBEAF" transform="translate(254,385)"/>
<path d="M0 0 C0.33 1.32 0.66 2.64 1 4 C0.52949219 4.37511719 0.05898437 4.75023437 -0.42578125 5.13671875 C-4.06639484 8.12910715 -6.85453304 10.70906609 -9 15 C-9.66 14.67 -10.32 14.34 -11 14 C-7.46386286 9.21224044 -3.85516296 4.53548584 0 0 Z " fill="#35BFB0" transform="translate(252,322)"/>
<path d="M0 0 C0.33 0 0.66 0 1 0 C1 1.65 1 3.3 1 5 C0.01 5 -0.98 5 -2 5 C-2 5.99 -2 6.98 -2 8 C-1.34 8.33 -0.68 8.66 0 9 C-1.32 9.99 -2.64 10.98 -4 12 C-4 10.68 -4 9.36 -4 8 C-5.32 8.33 -6.64 8.66 -8 9 C-7.04270084 7.87411986 -6.08412105 6.7493285 -5.125 5.625 C-4.59132812 4.99851562 -4.05765625 4.37203125 -3.5078125 3.7265625 C-2.38567993 2.44163349 -1.20628025 1.20628025 0 0 Z " fill="#3DBCB1" transform="translate(210,104)"/>
<path d="M0 0 C0.66 0.33 1.32 0.66 2 1 C2 1.66 2 2.32 2 3 C2.66 3.33 3.32 3.66 4 4 C2.55746343 7.36591866 0.66735273 9.51047079 -2 12 C-2 10.68 -2 9.36 -2 8 C-1.34 8 -0.68 8 0 8 C0 6.68 0 5.36 0 4 C-0.99 3.67 -1.98 3.34 -3 3 C-2.01 2.01 -1.02 1.02 0 0 Z " fill="#37BBB1" transform="translate(105,153)"/>
<path d="M0 0 C2.32785307 1.03460136 3.63642499 2.04672498 5.25 4 C4.92 4.66 4.59 5.32 4.25 6 C2.27 5.01 0.29 4.02 -1.75 3 C-2.08 3.66 -2.41 4.32 -2.75 5 C-3.08 4.34 -3.41 3.68 -3.75 3 C-5.07 3.99 -6.39 4.98 -7.75 6 C-8.41 5.67 -9.07 5.34 -9.75 5 C-3.74653979 0 -3.74653979 0 0 0 Z " fill="#39BBAA" transform="translate(220.75,98)"/>
<path d="M0 0 C4 4.75 4 4.75 4 7 C4.33 7 4.66 7 5 7 C5.33 9.31 5.66 11.62 6 14 C3 13 3 13 1.3125 9.8125 C-0.01535157 6.4652075 -0.26451861 3.61508773 0 0 Z " fill="#36C1B5" transform="translate(256,68)"/>
<path d="M0 0 C0.99 0 1.98 0 3 0 C3.3125 2.3125 3.3125 2.3125 3 5 C0.625 6.875 0.625 6.875 -2 8 C-2.66 7.67 -3.32 7.34 -4 7 C-2.68 4.69 -1.36 2.38 0 0 Z " fill="#28C4B5" transform="translate(352,360)"/>
<path d="M0 0 C1.32 0.33 2.64 0.66 4 1 C3.34 1.66 2.68 2.32 2 3 C2.17805127 6.38297413 2.78837244 7.76272061 5.0625 10.3125 C5.701875 10.869375 6.34125 11.42625 7 12 C5 13 5 13 2.375 12.1875 C0 10 0 10 -0.32421875 7.5703125 C-0.31342526 5.03024414 -0.21365765 2.53065621 0 0 Z " fill="#33BCAE" transform="translate(163,281)"/>
<path d="M0 0 C-8.07744875 5.74031891 -8.07744875 5.74031891 -14 5 C-11.85073619 2.60894402 -10.00963087 1.36721146 -7 0.25 C-5.9790625 -0.14445312 -5.9790625 -0.14445312 -4.9375 -0.546875 C-3 -1 -3 -1 0 0 Z " fill="#37BCB0" transform="translate(178,258)"/>
<path d="M0 0 C0.33 0.66 0.66 1.32 1 2 C3.02463255 2.65213292 3.02463255 2.65213292 5 3 C3.68 5.31 2.36 7.62 1 10 C0.67 9.34 0.34 8.68 0 8 C0.33 7.01 0.66 6.02 1 5 C0.34 4.67 -0.32 4.34 -1 4 C-1.33 5.32 -1.66 6.64 -2 8 C-2.99 7.67 -3.98 7.34 -5 7 C-3.35 4.69 -1.7 2.38 0 0 Z " fill="#3ABBAE" transform="translate(274,136)"/>
<path d="M0 0 C0.33 0 0.66 0 1 0 C2.00220537 7.83262041 1.8895125 15.1586052 1 23 C0.67 23 0.34 23 0 23 C-0.79773542 15.16992004 -1.14500285 7.80363479 0 0 Z " fill="#3EBCB2" transform="translate(226,344)"/>
<path d="M0 0 C1.13643966 3.40931897 0.86747764 4.00335456 -0.4375 7.1875 C-0.72496094 7.90292969 -1.01242188 8.61835938 -1.30859375 9.35546875 C-1.53675781 9.89816406 -1.76492187 10.44085938 -2 11 C-3.51953125 9.66796875 -3.51953125 9.66796875 -5 8 C-4.6875 5.3125 -4.6875 5.3125 -4 3 C-3.01 3 -2.02 3 -1 3 C-0.67 2.01 -0.34 1.02 0 0 Z " fill="#2FC1B3" transform="translate(256,144)"/>
<path d="M0 0 C1.32 0.33 2.64 0.66 4 1 C4.92470553 5.71599818 5.22923777 8.67265609 3 13 C2.67 13 2.34 13 2 13 C1.93941406 12.31292969 1.87882812 11.62585938 1.81640625 10.91796875 C1.73261719 10.01691406 1.64882813 9.11585938 1.5625 8.1875 C1.48128906 7.29417969 1.40007812 6.40085937 1.31640625 5.48046875 C1.06510233 2.87256441 1.06510233 2.87256441 0 0 Z " fill="#33C1B4" transform="translate(304,358)"/>
<path d="M0 0 C2.97 0.495 2.97 0.495 6 1 C6.061875 1.8353125 6.061875 1.8353125 6.125 2.6875 C7.46930374 6.24030274 10.00974189 7.70958953 13 10 C12.67 10.66 12.34 11.32 12 12 C9.99698881 10.19073245 7.99751914 8.377813 6 6.5625 C5.42765625 6.04623047 4.8553125 5.52996094 4.265625 4.99804688 C2.82480421 3.6858708 1.41014216 2.34509096 0 1 C0 0.67 0 0.34 0 0 Z " fill="#3FBEB0" transform="translate(183,322)"/>
<path d="M0 0 C2.31 0.33 4.62 0.66 7 1 C7 1.66 7 2.32 7 3 C7.94875 3.103125 8.8975 3.20625 9.875 3.3125 C13 4 13 4 15 7 C3.99280576 3.4028777 3.99280576 3.4028777 1 2 C0.67 1.34 0.34 0.68 0 0 Z " fill="#3BBBAF" transform="translate(159,310)"/>
<path d="M0 0 C0 3.31439938 -0.16781344 4.2915503 -2 7 C-4.24096344 8.81140232 -6.58768867 10.42619261 -9 12 C-7.55575365 8.76138697 -5.74227753 6.38030837 -3.375 3.75 C-2.74335938 3.04359375 -2.11171875 2.3371875 -1.4609375 1.609375 C-0.97882813 1.07828125 -0.49671875 0.5471875 0 0 Z " fill="#3CB7AA" transform="translate(359,109)"/>
<path d="M0 0 C7 8.20689655 7 8.20689655 7 13 C6.34 13 5.68 13 5 13 C5 12.01 5 11.02 5 10 C4.01 10 3.02 10 2 10 C2 8.35 2 6.7 2 5 C1.34 5 0.68 5 0 5 C0 3.35 0 1.7 0 0 Z " fill="#36BEB0" transform="translate(218,328)"/>
<path d="M0 0 C0.33 1.32 0.66 2.64 1 4 C0.34 4 -0.32 4 -1 4 C-0.96519531 4.68707031 -0.93039063 5.37414062 -0.89453125 6.08203125 C-0.86746094 6.98308594 -0.84039062 7.88414062 -0.8125 8.8125 C-0.76029297 10.15248047 -0.76029297 10.15248047 -0.70703125 11.51953125 C-1.04918998 14.41647515 -1.75393573 15.22555028 -4 17 C-3.91227545 15.10333474 -3.80408699 13.20761007 -3.6875 11.3125 C-3.62949219 10.25675781 -3.57148438 9.20101563 -3.51171875 8.11328125 C-2.96217936 4.76990036 -1.91325982 2.76473738 0 0 Z " fill="#3AC1B1" transform="translate(152,272)"/>
<path d="M0 0 C1.65 0.33 3.3 0.66 5 1 C4.484375 1.4125 3.96875 1.825 3.4375 2.25 C1.7411474 3.89874647 1.7411474 3.89874647 2.1875 6.125 C2.8435566 8.18964132 2.8435566 8.18964132 5 9 C3.125 8.75 3.125 8.75 1 8 C-0.3125 6.1875 -0.3125 6.1875 -1 4 C-0.625 1.75 -0.625 1.75 0 0 Z " fill="#36BFB3" transform="translate(414,159)"/>
<path d="M0 0 C0.33 0.66 0.66 1.32 1 2 C0.67 2.66 0.34 3.32 0 4 C1.32 4.33 2.64 4.66 4 5 C2.35 6.65 0.7 8.3 -1 10 C-1 9.01 -1 8.02 -1 7 C-2.32 6.67 -3.64 6.34 -5 6 C-3.35 4.02 -1.7 2.04 0 0 Z " fill="#36BBAD" transform="translate(140,143)"/>
<path d="M0 0 C0.66 0.33 1.32 0.66 2 1 C2 1.66 2 2.32 2 3 C2.99 3.66 3.98 4.32 5 5 C3.02 5.99 3.02 5.99 1 7 C1 6.01 1 5.02 1 4 C-0.1446875 4.7425 -0.1446875 4.7425 -1.3125 5.5 C-4 7 -4 7 -7 7 C-4.69 4.69 -2.38 2.38 0 0 Z " fill="#3DBEB3" transform="translate(325,323)"/>
<path d="M0 0 C1.5625 1.5625 1.5625 1.5625 3 4 C2.6875 7.75 2.6875 7.75 2 11 C0 8 0 8 -1 5 C-1.99 5.495 -1.99 5.495 -3 6 C-3 4.35 -3 2.7 -3 1 C-2.01 1.33 -1.02 1.66 0 2 C0 1.34 0 0.68 0 0 Z " fill="#34C2B7" transform="translate(411,149)"/>
<path d="M0 0 C0 1.98 0 3.96 0 6 C-1.65 6.33 -3.3 6.66 -5 7 C-4.625 4.0625 -4.625 4.0625 -4 1 C-2 0 -2 0 0 0 Z " fill="#26C6B8" transform="translate(369,149)"/>
<path d="M0 0 C0.33 0 0.66 0 1 0 C1.06058594 0.62648438 1.12117188 1.25296875 1.18359375 1.8984375 C1.26738281 2.71570313 1.35117187 3.53296875 1.4375 4.375 C1.55931641 5.59316406 1.55931641 5.59316406 1.68359375 6.8359375 C1.89090114 9.04272805 1.89090114 9.04272805 3 11 C1.02 11.99 -0.96 12.98 -3 14 C-2.01 9.38 -1.02 4.76 0 0 Z " fill="#37BEB3" transform="translate(42,76)"/>
<path d="M0 0 C0.33 0 0.66 0 1 0 C1 1.65 1 3.3 1 5 C-0.45264038 5.8638129 -1.9123163 6.71580454 -3.375 7.5625 C-4.59316406 8.27599609 -4.59316406 8.27599609 -5.8359375 9.00390625 C-6.55007812 9.33261719 -7.26421875 9.66132813 -8 10 C-8.66 9.67 -9.32 9.34 -10 9 C-9.44570312 8.60167969 -8.89140625 8.20335937 -8.3203125 7.79296875 C-7.59585938 7.26316406 -6.87140625 6.73335938 -6.125 6.1875 C-5.40570313 5.66542969 -4.68640625 5.14335937 -3.9453125 4.60546875 C-1.76971345 2.96727223 -1.76971345 2.96727223 0 0 Z " fill="#36C0B0" transform="translate(190,383)"/>
<path d="M0 0 C0.33 0.66 0.66 1.32 1 2 C0.67 2.99 0.34 3.98 0 5 C0.33 5.99 0.66 6.98 1 8 C-0.98 8.66 -2.96 9.32 -5 10 C-3.66511872 6.40608886 -2.03977277 3.24509304 0 0 Z " fill="#35C0B1" transform="translate(196,373)"/>
<path d="M0 0 C1.32 0 2.64 0 4 0 C4 2.64 4 5.28 4 8 C3.01 7.67 2.02 7.34 1 7 C0.67 4.69 0.34 2.38 0 0 Z " fill="#39BEB3" transform="translate(199,273)"/>
<path d="M0 0 C0.33 0.66 0.66 1.32 1 2 C1.66 2.33 2.32 2.66 3 3 C1.625 5.5 1.625 5.5 0 8 C-0.66 8 -1.32 8 -2 8 C-2.125 5.125 -2.125 5.125 -2 2 C-1.34 1.34 -0.68 0.68 0 0 Z " fill="#20CBBB" transform="translate(135,382)"/>
<path d="M0 0 C0.99 0.33 1.98 0.66 3 1 C2.67 2.32 2.34 3.64 2 5 C2.66 5.33 3.32 5.66 4 6 C1.03 6 -1.94 6 -5 6 C-3.35 4.02 -1.7 2.04 0 0 Z " fill="#2BC3B6" transform="translate(183,182)"/>
<path d="M0 0 C1.98 0.99 1.98 0.99 4 2 C4 2.66 4 3.32 4 4 C5.65 4 7.3 4 9 4 C5.77208445 6.1519437 4.71599191 6.20086443 1 6 C0.67 4.02 0.34 2.04 0 0 Z " fill="#31C1B6" transform="translate(312,174)"/>
<path d="M0 0 C-0.33 1.98 -0.66 3.96 -1 6 C-1.66 6 -2.32 6 -3 6 C-3 5.34 -3 4.68 -3 4 C-4.98 4 -6.96 4 -9 4 C-3 0 -3 0 0 0 Z " fill="#2EBEB0" transform="translate(446,161)"/>
<path d="M0 0 C0.66 1.32 1.32 2.64 2 4 C-1.75 7 -1.75 7 -4 7 C-3.67 5.02 -3.34 3.04 -3 1 C-2.01 0.67 -1.02 0.34 0 0 Z " fill="#2AC5B7" transform="translate(402,156)"/>
<path d="M0 0 C0.99 0 1.98 0 3 0 C2.67 2.31 2.34 4.62 2 7 C0.68 7 -0.64 7 -2 7 C-1.34 4.69 -0.68 2.38 0 0 Z " fill="#28C7B6" transform="translate(459,148)"/>
<path d="M0 0 C3.45457866 0.40169519 4.49290349 1.71149673 6.6875 4.3125 C6.3575 4.9725 6.0275 5.6325 5.6875 6.3125 C4.945 5.85875 4.2025 5.405 3.4375 4.9375 C1.21819422 3.62609204 -0.99217822 2.42969197 -3.3125 1.3125 C-2.3125 0.3125 -2.3125 0.3125 0 0 Z " fill="#36BCAD" transform="translate(162.3125,94.6875)"/>
<path d="M0 0 C1.32 0.33 2.64 0.66 4 1 C1.75 3.5 1.75 3.5 -1 6 C-2.32 6 -3.64 6 -5 6 C-3.35 4.02 -1.7 2.04 0 0 Z " fill="#25C8BA" transform="translate(269,346)"/>
<path d="M0 0 C0.99 0.33 1.98 0.66 3 1 C3 1.66 3 2.32 3 3 C3.66 3 4.32 3 5 3 C5.33 3.99 5.66 4.98 6 6 C6.66 6.33 7.32 6.66 8 7 C8.33 6.34 8.66 5.68 9 5 C9.33 5.99 9.66 6.98 10 8 C8.68 8.33 7.36 8.66 6 9 C3.59927045 6.11912454 1.52708963 3.43595166 0 0 Z " fill="#3ABCAC" transform="translate(292,205)"/>
<path d="M0 0 C0 0.66 0 1.32 0 2 C0.99 2.33 1.98 2.66 3 3 C1.02 3.99 -0.96 4.98 -3 6 C-3 5.34 -3 4.68 -3 4 C-3.99 3.67 -4.98 3.34 -6 3 C-2.25 0 -2.25 0 0 0 Z " fill="#35BBAD" transform="translate(94,185)"/>
<path d="M0 0 C0.66 0 1.32 0 2 0 C1.67 1.65 1.34 3.3 1 5 C0.071875 5.12375 0.071875 5.12375 -0.875 5.25 C-3.18437567 5.81258459 -3.18437567 5.81258459 -4.25 8.0625 C-4.4975 8.701875 -4.745 9.34125 -5 10 C-4.49890042 5.61537866 -3.01704885 3.1999003 0 0 Z " fill="#39BEB1" transform="translate(82,88)"/>
<path d="M0 0 C0 0.99 0 1.98 0 3 C-0.33 3.33 -0.66 3.66 -1 4 C0.32 4.33 1.64 4.66 3 5 C2.34 6.32 1.68 7.64 1 9 C0.67 8.01 0.34 7.02 0 6 C-1.65 6 -3.3 6 -5 6 C-3.35 4.02 -1.7 2.04 0 0 Z " fill="#38BDAE" transform="translate(134,151)"/>
<path d="M0 0 C0.99 0.33 1.98 0.66 3 1 C2.34 4.63 1.68 8.26 1 12 C0.34 11.67 -0.32 11.34 -1 11 C-1 8.69 -1 6.38 -1 4 C-0.34 4 0.32 4 1 4 C0.67 2.68 0.34 1.36 0 0 Z " fill="#38BCB2" transform="translate(82,99)"/>
<path d="M0 0 C0.66 0.33 1.32 0.66 2 1 C-0.625 4.875 -0.625 4.875 -4 6 C-5.37195574 7.29355827 -6.71182656 8.62298702 -8 10 C-6.5682479 4.98886765 -4.01554307 3.05530451 0 0 Z " fill="#3CBCB1" transform="translate(144,352)"/>
<path d="M0 0 C0.66 0.33 1.32 0.66 2 1 C0.71283353 2.00578589 -0.57988658 3.00446798 -1.875 4 C-2.95394531 4.8353125 -2.95394531 4.8353125 -4.0546875 5.6875 C-6 7 -6 7 -8 7 C-8 6.01 -8 5.02 -8 4 C-6.68 4 -5.36 4 -4 4 C-3.67 3.01 -3.34 2.02 -3 1 C-2.01 0.67 -1.02 0.34 0 0 Z " fill="#37C0AE" transform="translate(177,272)"/>
<path d="M0 0 C2.00841268 0.01421885 4.01537247 0.13420475 6.01953125 0.265625 C3.08579394 2.22144988 0.23736827 3.82786804 -2.98046875 5.265625 C-3.64046875 4.935625 -4.30046875 4.605625 -4.98046875 4.265625 C-3.72152968 1.74774686 -2.88459378 0.38688832 0 0 Z " fill="#3CBEB1" transform="translate(183.98046875,266.734375)"/>
<path d="M0 0 C0.33 0 0.66 0 1 0 C0.88590407 1.45922693 0.75834456 2.91740598 0.625 4.375 C0.55539063 5.18710938 0.48578125 5.99921875 0.4140625 6.8359375 C0 9 0 9 -2 11 C-2.93750716 7.33519927 -3.28668844 5.59943946 -1.625 2.125 C-1.08875 1.42375 -0.5525 0.7225 0 0 Z " fill="#32BFAF" transform="translate(222,136)"/>
<path d="M0 0 C0.66 0.99 1.32 1.98 2 3 C1.71125 3.53625 1.4225 4.0725 1.125 4.625 C-0.16711808 7.35280484 -1.08558592 10.12612718 -2 13 C-2.33 13 -2.66 13 -3 13 C-2.52060632 8.28596212 -2.03165952 4.33420699 0 0 Z " fill="#3CBEB2" transform="translate(298,126)"/>
<path d="M0 0 C1.75 1.4375 1.75 1.4375 3 3 C1.1875 4.0625 1.1875 4.0625 -1 5 C-1.99 4.67 -2.98 4.34 -4 4 C-4 3.01 -4 2.02 -4 1 C-2.1875 0.3125 -2.1875 0.3125 0 0 Z " fill="#25CBBD" transform="translate(275,341)"/>
<path d="M0 0 C1.485 0.99 1.485 0.99 3 2 C3.66 2 4.32 2 5 2 C5 4.64 5 7.28 5 10 C2.81434857 7.81434857 1.45914246 5.71931095 0 3 C0 2.01 0 1.02 0 0 Z " fill="#38BCB1" transform="translate(114,176)"/>
<path d="M0 0 C0 3.38023517 -0.87455622 5.83468937 -2 9 C-3.32 8.34 -4.64 7.68 -6 7 C-4.02 4.69 -2.04 2.38 0 0 Z " fill="#37BEB4" transform="translate(236,137)"/>
<path d="M0 0 C1.36125 0.37125 1.36125 0.37125 2.75 0.75 C2.75 1.41 2.75 2.07 2.75 2.75 C-0.55 3.08 -3.85 3.41 -7.25 3.75 C-4.05 -0.31153846 -4.05 -0.31153846 0 0 Z " fill="#3DBAAC" transform="translate(192.25,99.25)"/>
<path d="M0 0 C0.66 0 1.32 0 2 0 C1.67 2.64 1.34 5.28 1 8 C0.01 8 -0.98 8 -2 8 C-2.33 6.35 -2.66 4.7 -3 3 C-2.01 3 -1.02 3 0 3 C0 2.01 0 1.02 0 0 Z " fill="#24C8BC" transform="translate(297,92)"/>
<path d="M0 0 C0.66 0 1.32 0 2 0 C2 0.66 2 1.32 2 2 C2.99 2.33 3.98 2.66 5 3 C3.68 3.99 2.36 4.98 1 6 C1 5.34 1 4.68 1 4 C0.01 3.67 -0.98 3.34 -2 3 C-1.34 2.01 -0.68 1.02 0 0 Z " fill="#2EC0B0" transform="translate(268,329)"/>
<path d="M0 0 C0.33 0.99 0.66 1.98 1 3 C0.525625 3.45375 0.05125 3.9075 -0.4375 4.375 C-2.09027808 5.93258204 -2.09027808 5.93258204 -3 8 C-4.32 7.67 -5.64 7.34 -7 7 C-4.69 4.69 -2.38 2.38 0 0 Z " fill="#37BEAD" transform="translate(82,209)"/>
<path d="M0 0 C0.66 0.33 1.32 0.66 2 1 C0.02 3.31 -1.96 5.62 -4 8 C-4.66 7.67 -5.32 7.34 -6 7 C-5.34 5.68 -4.68 4.36 -4 3 C-3.34 3.33 -2.68 3.66 -2 4 C-2 3.01 -2 2.02 -2 1 C-1.34 0.67 -0.68 0.34 0 0 Z " fill="#3EBCB0" transform="translate(367,155)"/>
<path d="M0 0 C0 1.65 0 3.3 0 5 C-0.99 5 -1.98 5 -3 5 C-3 5.66 -3 6.32 -3 7 C-3.66 7 -4.32 7 -5 7 C-4.53479806 4.30182875 -3.4249099 0 0 0 Z " fill="#26C6B7" transform="translate(468,140)"/>
<path d="M0 0 C0.66 0.33 1.32 0.66 2 1 C2 1.99 2 2.98 2 4 C1.01 4 0.02 4 -1 4 C-1.33 4.99 -1.66 5.98 -2 7 C-3 4 -3 4 -3 1 C-2.01 0.67 -1.02 0.34 0 0 Z " fill="#26C9BD" transform="translate(360,350)"/>
<path d="M0 0 C-0.33 0.66 -0.66 1.32 -1 2 C-3.06640625 2.4140625 -3.06640625 2.4140625 -5.5625 2.625 C-6.38878906 2.69976562 -7.21507813 2.77453125 -8.06640625 2.8515625 C-9.02353516 2.92503906 -9.02353516 2.92503906 -10 3 C-9 1 -9 1 -7.25 0.375 C-4.79549443 -0.03408426 -2.4840589 -0.06900164 0 0 Z " fill="#3CBEB5" transform="translate(100,167)"/>
<path d="M0 0 C1 2 1 2 0.375 4.5 C-1 7 -1 7 -6 9 C-4.02 6.03 -2.04 3.06 0 0 Z " fill="#3BBEAF" transform="translate(409,142)"/>
<path d="M0 0 C1.32 0.66 2.64 1.32 4 2 C3.1875 3.9375 3.1875 3.9375 2 6 C1.01 6.33 0.02 6.66 -1 7 C-0.67 4.69 -0.34 2.38 0 0 Z " fill="#30C2B6" transform="translate(202,358)"/>
<path d="M0 0 C-0.59927826 3.35595828 -1.84622436 5.37801226 -4 8 C-4 5.69 -4 3.38 -4 1 C-2 0 -2 0 0 0 Z " fill="#3ABBB2" transform="translate(321,335)"/>
<path d="M0 0 C0.99 0.33 1.98 0.66 3 1 C3 1.66 3 2.32 3 3 C2.01 3.66 1.02 4.32 0 5 C-0.33 5.99 -0.66 6.98 -1 8 C-1.66 8 -2.32 8 -3 8 C-2.37240135 5.07120629 -1.41377341 2.63904371 0 0 Z " fill="#31BFAF" transform="translate(328,332)"/>
<path d="M0 0 C3.53600465 1.91135386 5.78972846 3.62642766 8 7 C7.67 7.66 7.34 8.32 7 9 C5.29115995 7.37660195 3.62553283 5.70680947 2 4 C2 3.34 2 2.68 2 2 C1.34 2 0.68 2 0 2 C0 1.34 0 0.68 0 0 Z " fill="#37BBAD" transform="translate(210,319)"/>
<path d="M0 0 C0.598125 0.350625 1.19625 0.70125 1.8125 1.0625 C-1.6525 2.5475 -1.6525 2.5475 -5.1875 4.0625 C-5.1875 2.7425 -5.1875 1.4225 -5.1875 0.0625 C-2.1875 -0.9375 -2.1875 -0.9375 0 0 Z " fill="#1DCCC2" transform="translate(94.1875,165.9375)"/>
<path d="M0 0 C0.99 0.495 0.99 0.495 2 1 C2 1.66 2 2.32 2 3 C2.99 3.33 3.98 3.66 5 4 C4.67 4.99 4.34 5.98 4 7 C2.68 6.34 1.36 5.68 0 5 C0 3.35 0 1.7 0 0 Z " fill="#31C0AF" transform="translate(83,161)"/>
<path d="M0 0 C-0.6875 1.9375 -0.6875 1.9375 -2 4 C-4.625 4.75 -4.625 4.75 -7 5 C-2.25 0 -2.25 0 0 0 Z " fill="#35BDB1" transform="translate(293,71)"/>
<path d="M0 0 C0.66 0.66 1.32 1.32 2 2 C0.8125 4 0.8125 4 -1 6 C-3.6875 6.25 -3.6875 6.25 -6 6 C-5.195625 5.38125 -4.39125 4.7625 -3.5625 4.125 C-0.96125481 2.25835959 -0.96125481 2.25835959 0 0 Z " fill="#36BDB1" transform="translate(217,276)"/>
<path d="M0 0 C1 3 1 3 -0.3125 5.6875 C-0.869375 6.450625 -1.42625 7.21375 -2 8 C-2.66 8 -3.32 8 -4 8 C-2.87548273 5.0280615 -1.77706209 2.66559313 0 0 Z " fill="#39BEB4" transform="translate(88,136)"/>
<path d="M0 0 C0.66 0.66 1.32 1.32 2 2 C1.01 4.64 0.02 7.28 -1 10 C-1.33 10 -1.66 10 -2 10 C-2.17942163 6.05272412 -2.09350689 3.4019487 0 0 Z " fill="#3ABCAD" transform="translate(397,133)"/>
<path d="M0 0 C2.0625 0.4375 2.0625 0.4375 4 1 C4 1.99 4 2.98 4 4 C2.35 4 0.7 4 -1 4 C-1 1 -1 1 0 0 Z " fill="#23CEC2" transform="translate(176,110)"/>
</svg>